<svg width="55" height="48" viewBox="0 0 55 48" fill="none" xmlns="http://www.w3.org/2000/svg">
    <path d="M4.17902 29.729L0.462891 35.3032L31.7403 48V40.8774L4.17902 29.729Z" fill="#060080"/>
    <path d="M23.069 21.9871L4.17871 29.729L31.74 40.8774L50.3206 33.4451L23.069 21.9871Z" fill="#DAF0FA"/>
    <path d="M54.037 39.0194L50.3209 33.4452L31.7402 40.8774V48L54.037 39.0194Z" fill="#3366FF"/>
    <path fill-rule="evenodd" clip-rule="evenodd" d="M45.0591 16.8363H37.2236V33.9968V34.02H37.2248C37.2764 34.5262 39.0101 34.9328 41.1413 34.9328C43.2726 34.9328 45.0063 34.5262 45.0579 34.02H45.0591V33.9974C45.0591 33.9972 45.0591 33.997 45.0591 33.9968C45.0591 33.9966 45.0591 33.9963 45.0591 33.9961V16.8363Z" fill="#3366FF"/>
    <path fill-rule="evenodd" clip-rule="evenodd" d="M35.7778 20.7484H27.9424V37.9321H27.9436C27.9951 38.4383 29.7289 38.8449 31.8601 38.8449C33.9913 38.8449 35.7251 38.4383 35.7766 37.9321H35.7778V37.9106C35.7778 37.91 35.7778 37.9094 35.7778 37.9089C35.7778 37.9083 35.7778 37.9078 35.7778 37.9072V20.7484Z" fill="#3366FF"/>
    <path fill-rule="evenodd" clip-rule="evenodd" d="M26.4642 17.2618H18.8682V34.293C18.8682 34.2934 18.8682 34.2938 18.8682 34.2942C18.8682 34.2946 18.8682 34.295 18.8682 34.2954V34.3172H18.8693C18.9193 34.8197 20.6001 35.2232 22.6662 35.2232C24.7323 35.2232 26.4131 34.8197 26.463 34.3172H26.4642V17.2618Z" fill="#3366FF"/>
    <path fill-rule="evenodd" clip-rule="evenodd" d="M17.4227 13.4709H9.3711V30.502C9.37109 30.5024 9.37109 30.5028 9.37109 30.5032C9.37109 30.5036 9.37109 30.504 9.3711 30.5044V30.5263H9.37231C9.42539 31.0287 11.2069 31.4323 13.3969 31.4323C15.5869 31.4323 17.3684 31.0287 17.4215 30.5263H17.4227V13.4709Z" fill="#3366FF"/>
    <path d="M6.03711 16.1031V12.387L18.8684 7.04065L31.4307 22.6064V26.6322L6.03711 16.1031Z" fill="#060080"/>
    <path d="M35.7659 0L18.8682 7.04074L31.4305 22.6065L48.4627 15.4839L35.7659 0Z" fill="#3366FF"/>
    <path d="M31.4307 22.6065V26.6323L48.4629 19.5097V15.4839L31.4307 22.6065Z" fill="#F7DAFA"/>
</svg>
