<svg width="230" height="31" viewBox="0 0 230 31" fill="none" xmlns="http://www.w3.org/2000/svg">
<path d="M9.10177 27.1404V0.0812988L0 1.15219V1.23375L2.01792 3.13385C2.14608 3.27128 2.24497 3.43332 2.30858 3.61014C2.3722 3.78696 2.39921 3.97487 2.38797 4.16245V27.1404C2.39697 27.3216 2.36877 27.5027 2.30513 27.6726C2.24149 27.8425 2.14374 27.9975 2.01792 28.1282L0 30.0193V30.1008H11.532V30.0193L9.51412 28.1237C9.37775 27.9999 9.27016 27.8476 9.19892 27.6778C9.12769 27.5079 9.09452 27.3245 9.10177 27.1404Z" fill="white"/>
<path d="M28.8927 11.2417C28.0197 10.6203 27.0501 10.1472 26.0229 9.84157C24.9662 9.5336 23.8702 9.38096 22.7695 9.38845C19.7779 9.38845 17.3068 10.2675 15.3564 12.0256C13.4059 13.7838 12.4332 16.4587 12.4383 20.0505C12.4383 23.455 13.413 26.0358 15.3624 27.7929C17.3119 29.55 19.7003 30.4291 22.5278 30.4301C27.5525 30.4301 30.5869 27.89 31.6311 22.81H31.548C30.2853 25.3374 28.1989 26.6001 25.2889 26.5981C23.5579 26.5981 22.1437 25.9738 21.0461 24.7252C19.9485 23.4766 19.3993 21.5886 19.3983 19.0612V18.9932H31.7504C31.7776 18.6639 31.7912 18.3618 31.7912 18.0869C31.7912 16.495 31.5304 15.1149 31.0088 13.9469C30.4872 12.7788 29.7819 11.8771 28.8927 11.2417ZM25.4535 18.238H19.3983C19.4254 15.3541 19.7139 13.2899 20.2637 12.0453C20.8135 10.8007 21.6216 10.1759 22.6879 10.1708C23.5942 10.1708 24.2875 10.6743 24.7678 11.6813C25.2481 12.6882 25.4883 14.466 25.4883 17.0145C25.4943 17.4828 25.4792 17.8876 25.4535 18.238Z" fill="white"/>
<path d="M52.3057 27.4288C51.482 27.4288 51.1114 26.6323 51.194 25.0394L51.4417 19.191C51.4417 19.1638 51.4417 18.9509 51.4614 18.5521C51.481 18.1534 51.4825 17.8739 51.4825 17.7093C51.4825 14.7157 50.7963 12.5739 49.4238 11.284C48.0775 10.0213 45.9493 9.38943 43.0393 9.38843C40.4041 9.38843 37.631 9.91053 34.7199 10.9547L37.3133 16.8454H37.3964L40.7329 10.6678C40.8182 10.5064 40.9378 10.3656 41.0833 10.2554C41.1784 10.201 41.4322 10.1723 41.8385 10.1723C43.8433 10.1723 44.8457 11.7512 44.8457 14.909V15.1159L44.7627 19.5218C43.7185 18.7797 42.2634 18.4091 40.3976 18.4101C38.6417 18.3816 36.9314 18.9695 35.5642 20.0716C34.1777 21.1853 33.4844 22.7027 33.4844 24.624C33.4844 26.4365 34.0196 27.8573 35.0899 28.8864C36.1603 29.9155 37.492 30.4305 39.085 30.4316C40.3233 30.4514 41.5353 30.074 42.5435 29.3548C43.5516 28.6355 44.3029 27.6123 44.6871 26.435C44.7415 27.6997 45.1946 28.6815 46.0465 29.3803C46.8984 30.0791 47.9421 30.4315 49.1776 30.4376C51.127 30.4376 52.4723 29.6824 53.2134 28.172C53.4385 27.7104 53.5513 27.2022 53.5427 26.6887H53.4611C53.3651 26.9138 53.2035 27.1048 52.9974 27.2368C52.7914 27.3688 52.5503 27.4357 52.3057 27.4288ZM44.6871 25.9411V25.9819C44.0548 26.9445 43.2719 27.4253 42.3384 27.4243C41.6235 27.4243 41.04 27.1152 40.5879 26.4969C40.1357 25.8787 39.9097 25.0227 39.9097 23.9292C39.9097 22.6937 40.2047 21.6777 40.7948 20.8812C41.3849 20.0847 42.2015 19.6864 43.2447 19.6864C43.7627 19.6861 44.2774 19.7698 44.7687 19.9342L44.6871 25.9411Z" fill="white"/>
<path d="M62.767 2.79834H62.6854L56.9187 9.26595C56.6438 9.56803 56.2193 9.71907 55.6423 9.71907H53.7891V10.5422H56.0547V24.793C56.0547 28.556 57.839 30.437 61.4076 30.4359C63.2201 30.4359 64.6137 29.9828 65.5884 29.0766C66.5489 28.1955 67.1931 27.0232 67.4221 25.7401L67.339 25.6993C66.7892 26.7143 65.9927 27.2223 64.9495 27.2233C64.64 27.2369 64.3318 27.1746 64.0519 27.0416C63.772 26.9086 63.5289 26.7091 63.344 26.4605C62.9593 25.9571 62.767 25.2361 62.767 24.2976V10.5422H67.8329V9.71907H62.767V2.79834Z" fill="white"/>
<path d="M89.8274 27.1404C89.8274 26.6742 89.8481 25.2947 89.8894 23.0019C89.9307 20.7091 89.9508 19.0682 89.9498 18.0794C89.9498 15.2519 89.401 13.0966 88.3034 11.6133C87.2059 10.1301 85.6129 9.38849 83.5245 9.38849C80.2851 9.38849 78.1026 10.9951 76.9768 14.2082V0.0812988L67.8735 1.15219V1.23375L69.8915 3.13385C70.0198 3.2712 70.1189 3.4332 70.1828 3.61001C70.2467 3.78683 70.274 3.97477 70.263 4.16245V27.1404C70.2717 27.3217 70.2433 27.5029 70.1794 27.6727C70.1155 27.8426 70.0175 27.9976 69.8915 28.1282L67.8735 30.0193V30.1008H79.4071V30.0193L77.3877 28.1237C77.2511 27.9991 77.1436 27.8461 77.0726 27.6754C77.0016 27.5047 76.9689 27.3206 76.9768 27.1359V14.6614C77.8277 13.4258 78.8573 12.8081 80.0656 12.8081C81.2458 12.8081 82.0624 13.3297 82.5155 14.3729C82.9686 15.4161 83.1952 16.9673 83.1952 19.0265C83.1952 19.7948 83.1746 21.3258 83.1333 23.6196C83.092 25.9135 83.0719 27.1006 83.0729 27.1812C83.0777 27.3596 83.0432 27.5369 82.972 27.7005C82.9007 27.8642 82.7944 28.0102 82.6605 28.1282L80.7242 30.0193V30.1008H92.2562V30.0193L90.2383 28.1237C90.1021 27.9998 89.9947 27.8475 89.9238 27.6776C89.8528 27.5078 89.8199 27.3244 89.8274 27.1404Z" fill="white"/>
<path d="M109.658 11.2417C108.787 10.6211 107.82 10.1481 106.796 9.84156C105.739 9.53379 104.643 9.38116 103.542 9.38843C100.548 9.38843 98.0774 10.2675 96.129 12.0256C94.1806 13.7837 93.2058 16.4587 93.2048 20.0505C93.2048 23.4549 94.1796 26.0357 96.129 27.7929C98.0784 29.55 100.467 30.429 103.294 30.43C108.32 30.43 111.355 27.89 112.398 22.81H112.315C111.052 25.3374 108.965 26.6001 106.054 26.5981C104.324 26.5981 102.91 25.9738 101.813 24.7252C100.715 23.4766 100.168 21.5906 100.172 19.0672V18.9932H112.529C112.555 18.6639 112.57 18.3618 112.57 18.0869C112.57 16.4949 112.309 15.1149 111.787 13.9469C111.266 12.7788 110.556 11.8771 109.658 11.2417ZM106.214 18.238H100.172C100.2 15.3541 100.488 13.2898 101.038 12.0453C101.588 10.8007 102.397 10.1759 103.467 10.1708C104.373 10.1708 105.066 10.6743 105.546 11.6812C106.027 12.6882 106.267 14.4659 106.268 17.0145C106.261 17.4828 106.246 17.8875 106.214 18.238Z" fill="white"/>
<path d="M128.378 9.38843C127.031 9.38843 125.906 9.91707 125 10.9744C124.095 12.0317 123.45 13.3704 123.064 14.9906V9.71921H113.917V9.80077L115.935 11.8595C116.185 12.1433 116.317 12.5116 116.305 12.8896V27.1404C116.305 27.5804 116.182 27.9097 115.935 28.1282L113.917 30.0192V30.1008H127.715V30.0192L123.677 27.6705C123.266 27.3971 123.06 27.0528 123.06 26.6419V15.5192C123.72 14.3109 124.311 13.5149 124.831 13.1312C125.078 12.9661 125.325 13.0346 125.573 13.3367L128.826 17.2079H128.908L131.174 10.7418C130.49 9.83954 129.558 9.38843 128.378 9.38843Z" fill="white"/>
<path d="M145.923 9.38849C143.013 9.38849 140.871 10.8989 139.498 13.9197V0.0812988L130.396 1.15219V1.23375L132.373 3.13385C132.501 3.27148 132.599 3.43355 132.663 3.61032C132.727 3.78709 132.754 3.9749 132.743 4.16245V30.4437H132.826L139.333 28.2068C140.459 29.69 142.161 30.4316 144.44 30.4316C147.186 30.4316 149.41 29.4357 151.113 27.444C152.815 25.4523 153.667 22.8785 153.667 19.7228C153.667 16.5912 152.966 14.0854 151.566 12.2054C150.165 10.3254 148.284 9.38647 145.923 9.38849ZM141.887 28.6599C140.897 28.6599 140.101 28.3578 139.498 27.7536V14.462C140.348 13.2828 141.378 12.6928 142.586 12.6918C145.224 12.6918 146.542 15.1084 146.541 19.9418C146.542 25.7539 144.99 28.6599 141.887 28.6599Z" fill="white"/>
<path d="M174.218 27.4288C173.394 27.4288 173.023 26.6323 173.106 25.0394L173.354 19.191C173.354 19.1638 173.354 18.9509 173.373 18.5521C173.393 18.1534 173.394 17.8739 173.394 17.7093C173.394 14.7157 172.708 12.5739 171.336 11.284C169.989 10.0213 167.861 9.38943 164.951 9.38843C162.315 9.38843 159.542 9.91053 156.632 10.9547L159.227 16.8454H159.308L162.645 10.6678C162.73 10.506 162.849 10.3652 162.995 10.2554C163.09 10.201 163.344 10.1723 163.75 10.1723C165.754 10.1723 166.757 11.7512 166.758 14.909V15.1159L166.675 19.5218C165.631 18.7797 164.176 18.4091 162.309 18.4101C160.554 18.3813 158.843 18.9693 157.476 20.0716C156.088 21.1853 155.394 22.7027 155.396 24.624C155.396 26.4365 155.931 27.8573 157.002 28.8864C158.072 29.9155 159.404 30.4305 160.997 30.4316C162.235 30.4514 163.447 30.074 164.455 29.3548C165.463 28.6355 166.215 27.6123 166.599 26.435C166.653 27.6997 167.107 28.6815 167.958 29.3803C168.81 30.0791 169.854 30.4315 171.089 30.4376C173.038 30.4376 174.383 29.6824 175.125 28.172C175.35 27.7102 175.462 27.2021 175.455 26.6887H175.373C175.277 26.9138 175.115 27.1048 174.909 27.2368C174.703 27.3688 174.462 27.4357 174.218 27.4288ZM166.599 25.9411V25.9819C165.966 26.9445 165.183 27.4253 164.25 27.4243C163.535 27.4243 162.952 27.1152 162.5 26.4969C162.048 25.8787 161.821 25.0227 161.82 23.9292C161.82 22.6937 162.116 21.6777 162.707 20.8812C163.298 20.0847 164.114 19.6864 165.157 19.6864C165.675 19.6861 166.189 19.7698 166.681 19.9342L166.599 25.9411Z" fill="white"/>
<path d="M187.686 10.1708H187.891C188.06 10.1557 188.23 10.1843 188.385 10.2539C188.504 10.3658 188.59 10.5085 188.633 10.6662L191.805 17.7093H191.886L194.522 10.6239C192.051 9.80023 189.717 9.38839 187.521 9.38839C186.175 9.38087 184.835 9.57536 183.546 9.96537C182.292 10.3545 181.116 10.9608 180.072 11.7567C179.001 12.5683 178.149 13.6941 177.518 15.134C176.886 16.574 176.571 18.242 176.571 20.138C176.571 23.4338 177.505 25.9738 179.373 27.7581C181.24 29.5424 183.506 30.435 186.169 30.4361C188.504 30.4361 190.385 29.7971 191.812 28.5193C193.24 27.2415 194.132 25.4638 194.489 23.1861H194.407C193.226 25.4386 191.538 26.5643 189.341 26.5633C187.748 26.5633 186.423 25.8907 185.366 24.5454C184.309 23.2001 183.78 21.0725 183.78 18.1624C183.775 12.8357 185.077 10.1718 187.686 10.1708Z" fill="white"/>
<path d="M216.434 27.1404L210.914 16.2654C210.879 16.2033 210.856 16.1348 210.847 16.0638C210.838 15.9928 210.844 15.9208 210.863 15.8519C210.882 15.7829 210.914 15.7184 210.959 15.6621C211.003 15.6058 211.058 15.5588 211.12 15.5238L218.658 9.79932V9.71776H208.563V9.79932L210.019 11.8716L211.368 13.7944C211.615 14.1236 211.587 14.3985 211.286 14.6175L204.613 19.6019V0.0812988L195.511 1.15219V1.23375L197.529 3.13385C197.657 3.27148 197.756 3.43355 197.819 3.61032C197.883 3.78709 197.91 3.9749 197.899 4.16245V27.1404C197.908 27.3216 197.879 27.5026 197.816 27.6724C197.752 27.8422 197.655 27.9973 197.529 28.1282L195.511 30.0193V30.1008H207.043V30.0193L205.025 28.1237C204.888 27.9994 204.78 27.8464 204.709 27.6757C204.638 27.505 204.605 27.3207 204.613 27.1359V20.0505C204.74 19.9442 204.9 19.886 205.066 19.8859C205.226 19.8772 205.385 19.9207 205.519 20.0097C205.653 20.0987 205.754 20.2285 205.808 20.3798L210.38 30.0993H219.11V30.0193L217.381 28.4167C217.002 28.0413 216.683 27.6111 216.434 27.1404Z" fill="white"/>
<path d="M229.774 3.53705C229.477 2.46214 228.817 1.52339 227.905 0.880776C226.994 0.238159 225.888 -0.0685634 224.776 0.012876C223.664 0.0943153 222.614 0.558876 221.806 1.3274C220.998 2.09592 220.482 3.12084 220.345 4.22752C220.208 5.3342 220.459 6.45415 221.055 7.39652C221.651 8.3389 222.555 9.0454 223.614 9.39562C224.673 9.74584 225.82 9.71811 226.861 9.31717C227.901 8.91622 228.771 8.16686 229.321 7.19679C229.634 6.64701 229.836 6.04048 229.914 5.4123C229.991 4.78411 229.944 4.14674 229.774 3.53705ZM227.921 6.40684C227.554 7.05232 226.975 7.55083 226.283 7.81745C225.59 8.08406 224.827 8.10229 224.122 7.86902C223.417 7.63575 222.816 7.16542 222.419 6.53815C222.022 5.91089 221.855 5.16549 221.947 4.42896C222.038 3.69242 222.382 3.01032 222.919 2.49884C223.457 1.98737 224.156 1.67817 224.896 1.62393C225.636 1.56969 226.372 1.77376 226.979 2.20136C227.585 2.62897 228.025 3.25367 228.223 3.96903C228.448 4.78864 228.339 5.66409 227.921 6.40382V6.40684Z" fill="white"/>
</svg>