<svg width="551" height="363" viewBox="0 0 551 363" fill="none" xmlns="http://www.w3.org/2000/svg">
<mask id="mask0_4591_304741" style="mask-type:alpha" maskUnits="userSpaceOnUse" x="0" y="0" width="551" height="363">
<rect width="551" height="363" rx="10" fill="white" stroke="white" stroke-width="1.5" stroke-linecap="round" stroke-linejoin="round"/>
</mask>
<g mask="url(#mask0_4591_304741)">
<g opacity="0.1">
<path d="M992.677 -509.988C995.118 -503.433 1000.12 -498.592 1005.98 -494.72C1017.6 -487.032 1029.68 -479.892 1041.36 -472.246C1048.52 -467.564 1055.07 -462.086 1062.27 -457.474C1070.01 -452.521 1079.12 -450.676 1088.23 -449.079C1102.15 -446.64 1116.13 -444.819 1128.52 -437.374C1141.35 -429.644 1148.16 -418.8 1150.62 -405.264C1152.44 -395.226 1153.82 -385.174 1150.75 -375.018C1148.85 -368.725 1145.66 -363.107 1140.18 -359.361C1126.31 -349.833 1111.31 -341.944 1094.34 -338.395C1085.83 -336.616 1076.95 -337.323 1068.36 -339.519C1052.35 -343.606 1037.57 -349.646 1026.26 -361.44C1022.99 -364.844 1019.75 -368.267 1016.31 -371.507C1010.75 -376.727 1003.67 -378.53 995.992 -378.998C990.938 -379.298 985.884 -379.7 980.83 -380.314C968.048 -381.877 961.624 -390.062 958.774 -400.484C955.741 -411.398 954.104 -422.635 951.996 -433.727C949.898 -444.762 948.089 -456.238 937.627 -463.322C930.89 -467.882 922.813 -470.898 915.035 -473.946C905.118 -477.832 894.894 -481.044 884.806 -484.555C876.284 -487.519 868.996 -492.224 862.567 -498.133C860.51 -500.006 858.479 -501.94 856.416 -503.827C852.11 -507.778 850.351 -508.125 845.58 -504.655C838.215 -499.167 830.071 -494.643 821.376 -491.208C813.84 -488.306 805.976 -486.11 798.233 -483.684C784.081 -479.241 772.28 -471.394 761.843 -461.73C752.063 -452.675 742.713 -443.227 732.903 -434.204C727.045 -428.82 720.707 -423.904 714.495 -418.833C706.717 -412.517 706.12 -404.084 707.116 -395.615C707.743 -390.258 709.684 -384.935 711.761 -379.85C715.213 -371.38 723.027 -366.384 730.618 -361.459C740.64 -354.951 751.982 -351.542 764.168 -351.922C772.396 -352.174 780.563 -353.888 788.771 -354.824C796.014 -355.648 803.267 -356.824 810.504 -356.917C822.169 -357.062 833.885 -356.917 845.494 -356.009C854.875 -355.269 864.235 -353.513 872.468 -348.705C881.475 -343.442 887.009 -335.595 889.309 -326.32C891.73 -316.567 892.614 -306.491 894.237 -296.565C896.294 -283.98 895.581 -271.039 900.762 -258.847C905.073 -248.705 911.143 -240.039 923.137 -237.637C930.718 -236.115 938.85 -236.85 946.735 -236.518C952.572 -236.274 958.475 -236.387 964.222 -235.581C977.363 -233.709 987.638 -227.154 995.927 -217.705C1000.67 -212.307 1005.7 -207.1 1010.05 -201.444C1017.24 -192.08 1018.37 -181.372 1014.67 -170.875C1008.72 -154.02 1002.22 -137.277 994.8 -120.936C988.26 -106.534 975.594 -98.1532 959.036 -95.0022C951.612 -93.5976 944.111 -92.4223 936.838 -90.5121C931.921 -89.2198 926.862 -87.4687 922.687 -84.8C913.776 -79.0691 913.084 -70.3979 914.519 -61.2632C915.464 -55.1531 916.233 -49.0102 916.879 -42.8626C917.368 -38.2055 917.686 -33.5234 917.835 -28.8164C918.244 -15.2103 912.311 -4.75054 899.918 2.77823C888.157 9.93244 877.624 18.4585 872.12 30.8239C864.023 49.347 859.615 69.0759 859.11 89.0547C858.994 94.4719 857.928 99.9125 856.801 105.259C854.743 115.012 847.39 120.359 837.443 121.263C826.668 122.237 815.71 121.703 804.828 121.427C790.318 121.061 775.777 119.441 761.322 120.022C750.708 120.448 740.196 123.599 729.612 125.397C725.71 126.057 721.692 126.891 717.801 126.642C702.193 125.659 688.32 129.452 676.164 138.577C668.465 144.386 659.646 148.79 650.176 151.556C637.293 155.301 628.13 162.877 620.356 172.677C612.244 182.898 601.246 188.226 587.322 189.097C578.068 189.673 569.208 188.418 560.358 186.685C544.902 183.656 530.624 185.805 517.286 193.708C503.731 201.762 501.644 211.229 506.127 225.233C508.047 231.226 511.631 236.84 515.022 242.327C518.56 248.081 523.084 253.33 526.702 259.056C532.767 268.664 535.168 278.885 533.045 290.159C531.084 300.553 527.834 310.531 522.846 319.876C516.958 330.907 506.021 336.086 493.663 339.255C481.72 342.322 469.691 344.874 457.233 343.937C449.47 343.362 441.792 341.868 434.044 340.978C422.622 339.667 411.573 340.187 401.364 346.129C395.422 349.535 389.264 352.604 382.921 355.32C378.539 357.239 376.609 356.448 375.487 352.309C373.723 345.82 372.348 339.199 371.19 332.607C369.715 324.179 368.492 315.681 367.395 307.193C366.561 300.787 366.51 294.275 365.318 287.94C364.515 283.362 362.917 278.935 360.587 274.83C356.715 268.275 350.049 266.402 341.33 268.167C331.576 270.139 321.821 272.161 312.016 273.819C304.986 275.008 297.556 274.788 290.789 276.717C281.373 279.409 272.28 283.225 263.324 287.106C253.352 291.428 243.33 294.715 232.059 294.087C213.162 293.043 198.54 279.264 199.955 260.737C200.521 253.344 207.759 247.159 216.932 245.871C224.316 244.827 231.726 243.844 239.17 243.259C254.919 242.013 263.461 234.962 266.999 220.846C269.875 209.379 272.336 197.815 274.58 186.231C277.355 171.96 282.475 158.415 288.317 145.029C292.426 135.618 297.334 126.614 305.446 119.69C318.212 108.628 334.403 101.557 351.737 99.4723C371.221 97.033 389.35 91.7891 403.29 77.9864C410.158 71.1786 416.602 63.7903 417.734 54.3091C418.594 47.1268 417.472 39.7198 416.951 32.4298C416.684 29.7417 416.057 27.0949 415.086 24.5499C412.053 16.0894 404.427 11.8474 394.783 12.6574C388.188 13.2099 381.547 13.4534 374.92 13.5517C354.198 13.856 334.017 16.4733 315.332 25.4348C306.436 29.7002 297.561 34.017 288.858 38.6008C279.002 43.7932 273.877 52.0945 271.79 62.2218C269.591 72.925 263.885 81.1093 253.459 86.9197C244.765 91.761 235.895 97.0845 232.59 106.931C231.195 111.084 229.588 115.359 229.401 119.633C229.092 126.619 229.598 133.68 230.23 140.656C231.609 155.779 224.104 167.03 212.151 176.099C197.352 187.336 187.679 201.42 183.938 218.706C181.184 231.432 174.25 240.651 162.14 247.267C149.808 254.023 138.092 261.744 126.114 269.062C120.606 272.412 114.223 274.323 107.641 274.591C102.809 274.802 97.7597 273.421 93.0138 272.11C75.6123 267.311 58.2512 262.39 40.9558 257.221C30.5998 254.121 22.1796 247.721 14.0929 241.377C1.66976 231.633 -10.2581 221.3 -21.8524 210.714C-27.0127 206.004 -31.991 201.022 -35.4077 194.701C-39.264 187.584 -38.9456 180.449 -38.0106 173.164C-35.3976 152.375 -25.1022 134.152 -15.3729 115.743C-11.466 108.35 -7.87757 100.811 -3.95553 93.4231C-2.34251 90.359 -0.441552 87.4324 1.72535 84.6771C7.94199 76.8439 16.6756 75.4018 26.2684 77.2419C40.036 79.8779 53.7025 82.6731 67.8996 83.029C79.7921 83.3286 90.0066 87.4582 96.8348 97.3093C99.3619 100.947 102.632 104.173 105.771 107.413C116.303 118.294 127.413 115.841 136.055 105.264C140.968 99.2383 142.939 92.2011 142.934 85.0843C142.934 69.9893 144.779 55.1893 147.715 40.3659C150.53 26.1558 152.057 11.7257 154.548 -2.54528C156.009 -10.9356 158.086 -19.2463 160.189 -27.5242C163.407 -39.5924 161.845 -52.3297 155.787 -63.4216C148.943 -76.2458 144.546 -89.8285 139.714 -103.313C137.693 -108.931 135.196 -114.363 130.4 -118.731C123.233 -125.258 114.681 -126.4 105.285 -125.258C94.1005 -123.9 82.9105 -121.629 71.7004 -121.512C53.561 -121.348 41.9212 -130.408 40.8699 -148.453C40.0107 -163.384 41.5472 -177.987 47.7335 -191.776C51.236 -199.576 56.0729 -206.927 60.8743 -214.142C67.7682 -224.466 71.8368 -235.68 73.9697 -247.497C76.4715 -261.347 82.3546 -273.96 89.7387 -286.003C93.6557 -292.398 97.977 -298.7 103.006 -304.37C111.709 -314.165 124.036 -318.159 137 -320.135C146.517 -321.586 156.206 -321.97 165.834 -322.888C174.27 -323.693 182.089 -326.011 189.038 -330.735C195.068 -334.832 201.011 -339.163 207.521 -342.501C225.059 -351.505 242.627 -349.992 259.433 -340.745C268.08 -336.002 277.031 -332.205 286.937 -331.817C297.334 -331.381 306.846 -334.874 314.301 -341.78C320.922 -347.918 326.734 -354.801 333.355 -360.934C339.814 -366.928 346.465 -372.855 353.718 -377.977C363.18 -384.654 368.881 -393.32 372.56 -403.504C375.087 -410.527 377.776 -417.653 385.378 -421.366C389.392 -423.249 393.683 -424.575 398.114 -425.299C402.739 -426.114 407.545 -426.156 412.266 -426.263C428.661 -426.629 445.062 -426.97 461.458 -427.116C466.977 -427.162 472.506 -426.249 478.01 -426.409C481.66 -426.516 485.294 -427.654 488.887 -428.506C495.963 -430.173 497.985 -435.529 498.743 -441.199C500.183 -452.034 494.148 -462.634 484.197 -467.11C476.464 -470.589 469.085 -474.746 461.453 -478.408C453.821 -482.069 446.907 -486.728 443.258 -493.859C440.771 -498.728 440.498 -504.566 439.215 -509.97" stroke="white" stroke-linejoin="round"/>
<path d="M66.0402 -509.551C67.0366 -508.723 67.9784 -507.842 68.8605 -506.91C74.4379 -500.333 81.3808 -494.859 89.2794 -490.808C103.391 -483.457 118.199 -477.736 134.62 -476.181C146.326 -475.072 158.026 -473.653 169.605 -471.729C175.433 -470.764 181.038 -468.503 186.648 -466.578C198.823 -462.407 210.873 -462.833 223.114 -466.522C228.855 -468.259 234.698 -469.547 241.087 -468.507C248.309 -467.332 253.889 -463.905 259.004 -459.565C269.698 -450.491 277.992 -439.568 285.942 -428.452C291.699 -420.394 298.947 -414.177 309.191 -411.953C315.494 -410.586 322.115 -410.525 328.544 -409.584C332.396 -408.989 336.191 -408.115 339.896 -406.971C346.825 -404.887 346.491 -398.286 344.611 -393.861C341.331 -386.15 334.948 -380.433 329.474 -374.154C324.42 -368.349 319.366 -362.519 313.806 -357.098C307.008 -350.383 299.29 -344.849 288.358 -345.659C281.5 -346.179 275.617 -349.218 269.976 -352.341C261.419 -357.079 252.428 -359.396 242.481 -359.776C223.574 -360.501 206.561 -355.684 190.929 -346.109C177.267 -337.761 161.953 -334.038 146.007 -331.482C130.289 -328.968 114.768 -325.302 100.56 -318.072C93.7472 -314.608 88.0512 -309.972 84.5587 -303.558C77.4273 -290.476 70.6193 -277.221 67.0208 -262.824C65.0901 -255.127 63.4171 -247.373 61.8048 -239.606C59.5608 -228.79 53.7182 -219.557 47.077 -210.717C40.638 -202.13 34.4921 -193.394 32.0914 -183.06C30.6964 -177.044 30.3527 -170.817 29.6351 -164.674C29.2105 -161.036 28.7152 -157.374 28.7202 -153.722C28.7202 -143.792 28.9831 -133.749 34.4264 -124.843C40.1376 -115.479 50.0034 -112.333 60.8395 -111.733C73.3789 -111.036 85.7667 -112.97 98.2404 -114.103C111.144 -115.278 120.034 -111.832 125.118 -98.9374C127.085 -93.9557 128.085 -88.6368 129.97 -83.6364C133.069 -75.3912 135.692 -66.8511 140.023 -59.1678C148.787 -43.6187 149.525 -28.018 144.769 -11.2703C140.013 5.47751 132.043 20.5679 122.394 35.1619C118.414 41.1082 114.794 47.2542 111.548 53.5718C107.126 62.2992 99.418 65.9324 89.7089 67.1498C82.7494 68.0206 75.8555 69.3878 68.8857 70.1369C58.2265 71.2841 47.5925 71.4058 37.6813 66.6629C30.8531 63.3854 24.1361 59.9207 17.3281 56.6151C11.0559 53.5718 7.1743 54.4426 2.67103 59.6678C-4.21275 67.6274 -9.30231 76.6357 -13.2597 86.0139C-18.7186 99.0734 -25.0885 111.79 -32.3291 124.084C-39.405 136.018 -44.0295 148.861 -48.3458 161.789C-51.3429 170.755 -53.6375 179.918 -56.4931 188.945C-58.3682 194.849 -56.2404 200.182 -52.9552 204.601C-49.8166 208.829 -45.2678 212.402 -40.805 215.595C-28.589 224.285 -16.9948 233.485 -7.73551 245.017C1.362 256.362 4.04576 268.933 1.28618 282.722C0.477511 286.753 0.245027 290.887 -0.17447 294.984C-1.23585 305.285 -8.04888 311.84 -17.2525 316.381C-28.7457 322.042 -40.7999 326.153 -54.1076 326.584C-74.6932 327.248 -94.4146 331.86 -113.747 338.289C-119.429 340.104 -125.282 341.423 -131.229 342.231C-139.513 343.444 -146.796 337.891 -149.192 329.173C-150.602 324.055 -152.224 318.989 -153.402 313.825C-155.565 304.273 -161.231 297.18 -169.98 291.885C-176.419 287.989 -183.065 284.22 -188.832 279.557C-201.669 269.181 -207.663 255.009 -211.484 240.185C-214.987 226.607 -211.959 213.497 -203.959 201.717C-199.167 194.666 -193.193 188.312 -188.018 181.472C-182.666 174.397 -177.808 167.051 -178.516 157.837C-179.072 150.645 -182.923 144.643 -186.552 138.551C-193.173 127.455 -198.94 116.077 -201.745 103.511C-204.661 90.4665 -201.745 78.1854 -196.398 66.2883C-193.284 59.3354 -189.691 52.3732 -183.211 47.4523C-167.938 35.8548 -158.78 20.8628 -152.841 3.62813C-148.257 -9.67833 -140.003 -20.8825 -125.478 -26.5057C-120.196 -28.5471 -114.242 -29.4976 -108.496 -30.0126C-101.925 -30.6026 -95.2637 -30.0594 -88.6427 -30.1671C-72.2116 -30.4433 -57.1704 -26.1499 -43.2461 -18.3027C-30.7573 -11.2796 -20.5984 -2.01378 -12.4157 9.24193C-8.40691 14.7777 -3.97661 20.0412 0.841424 24.9924C6.04217 30.3206 10.687 29.8337 14.8819 23.7095C18.9554 17.8173 21.887 11.3114 23.5448 4.48493C25.8899 -5.22569 29.0589 -14.7631 31.4444 -24.4643C34.4315 -36.6096 32.0004 -48.4927 27.6134 -59.9123C22.3773 -73.5418 14.0682 -85.3734 -0.255338 -92.2608C-6.89586 -95.3695 -13.8458 -97.8752 -21.0078 -99.7427C-36.2259 -103.854 -51.5805 -107.468 -66.8845 -111.214C-74.2737 -113.03 -81.8499 -114.327 -89.0824 -116.57C-102.764 -120.817 -114.384 -128.149 -123.102 -138.885C-129.081 -146.24 -130.178 -154.855 -128.844 -163.817C-126.22 -181.506 -116.249 -195.341 -102.926 -207.725C-95.1078 -214.991 -87.8459 -222.752 -81.1929 -230.953C-74.4102 -239.32 -72.0549 -249.307 -71.5192 -259.776C-70.7712 -274.342 -74.769 -288.229 -77.7206 -302.289C-79.8939 -312.637 -81.4911 -323.101 -83.9929 -333.378C-86.6817 -344.428 -93.1915 -353.118 -104.715 -357.922C-115.718 -362.515 -126.953 -366.696 -137.779 -371.598C-150.976 -377.558 -162.039 -385.981 -168.989 -398.286C-175.054 -409.017 -175.792 -420.685 -172.128 -431.94C-167.65 -445.71 -155.954 -452.476 -141.14 -455.276C-128.065 -457.743 -114.94 -455.407 -101.869 -456.142C-89.138 -456.854 -76.3257 -457.683 -64.5242 -462.72C-49.6397 -469.079 -39.5414 -480.213 -31.5002 -492.971C-28.1443 -498.3 -26.0266 -504.302 -23.3479 -510" stroke="white" stroke-linejoin="round"/>
<path d="M1008.3 -509.551C1012.71 -505.608 1016.85 -501.348 1021.6 -497.789C1030.7 -490.981 1040.19 -484.633 1049.42 -477.975C1053.04 -475.371 1056.43 -472.501 1059.84 -469.669C1069.95 -461.241 1081.95 -456.915 1095.32 -455.154C1110.76 -453.122 1125.84 -450.004 1138.88 -441.225C1150.12 -433.673 1156.8 -423.737 1158.2 -410.951C1159.35 -400.454 1160.64 -389.933 1160.96 -379.398C1161.37 -365.736 1156.03 -354.864 1141.75 -348.651C1129.88 -343.501 1118.57 -337.222 1106.65 -332.198C1095.98 -327.699 1084.31 -327.764 1073.17 -330.063C1057.53 -333.289 1042.11 -337.587 1027.74 -344.395C1021.57 -347.318 1015.58 -350.539 1009.78 -354.045C1001.95 -358.783 993.269 -360.492 984.202 -361.499C978.011 -362.192 971.754 -363.025 965.78 -364.608C955.874 -367.23 949.697 -373.883 947.448 -382.938C945.199 -391.993 944.198 -401.32 942.556 -410.511C940.883 -419.875 939.64 -429.333 937.239 -438.533C933.751 -451.881 923.436 -460.01 910.381 -465.221C893.96 -471.776 876.7 -476.078 859.288 -479.609C850.262 -481.439 841.017 -480.99 831.864 -478.93C822.014 -476.715 811.83 -475.652 802.126 -473.026C787.105 -468.952 773.736 -461.527 762.471 -451.572C751.205 -441.618 740.566 -430.934 730.265 -420.071C716.978 -406.058 719.035 -392.915 729.452 -379.974C736.27 -371.504 745.195 -364.739 757.118 -362.182C765.811 -360.309 774.424 -360.216 783.157 -360.988C787.11 -361.34 791.032 -361.995 794.989 -362.257C801.287 -362.674 807.625 -362.983 813.907 -363.142C827.937 -363.507 841.978 -364.121 856.003 -363.915C865.636 -363.774 875.179 -362.117 883.907 -357.898C895.365 -352.364 901.228 -343.384 901.834 -331.613C902.416 -320.231 902.067 -308.797 902.972 -297.434C903.785 -287.166 903.371 -276.739 907.04 -266.734C912.013 -253.188 922.38 -246.221 938.77 -245.477C950.279 -244.957 962.186 -246.259 973.295 -242.157C979.249 -239.961 985.521 -237.943 990.712 -234.619C1003.68 -226.262 1014 -215.39 1022.01 -202.758C1028.55 -192.457 1028.39 -181.253 1024.69 -170.4C1021.15 -159.926 1015.87 -149.958 1011.69 -139.648C1008.84 -132.625 1006.35 -125.419 1004.11 -118.185C1000.3 -105.9 994.508 -95.1684 980.396 -90.6174C974.463 -88.7118 968.413 -87.1105 962.434 -85.3267C955.171 -83.1635 947.736 -81.3703 940.701 -78.6547C931.993 -75.2883 927.697 -68.4759 927.489 -59.9264C927.171 -46.7885 927.383 -33.6366 927.414 -20.4893C927.414 -9.76267 922.834 -1.13365 913.671 5.34166C907.303 9.83645 900.894 14.3125 894.258 18.4515C886.758 23.1335 882.27 29.9834 879.323 37.3952C874.299 50.0368 871.55 63.184 870.418 76.762C869.336 89.7407 871.585 102.261 873.511 114.897C874.825 123.503 868.74 130.994 858.823 132.886C848.675 134.824 838.607 133.284 828.554 132.366C820.947 131.669 813.437 130.152 805.81 129.421C797.006 128.579 788.166 128.017 779.326 127.651C765.832 127.09 753.08 130.344 741.061 135.611C727.501 141.538 713.875 147.04 698.914 149.1C691.151 150.168 684.353 153.6 677.662 157.06C667.28 162.392 656.838 167.702 646.998 173.812C641.615 177.155 637.304 182.02 632.715 186.383C623.85 194.811 612.892 199.105 600.515 200.317C591.25 201.254 581.925 201.839 572.616 202.045C565.216 202.209 557.792 201.272 550.377 201.338C542.639 201.404 535.25 203.459 529.15 207.893C520.638 214.111 518.738 224.346 524.449 235.381C528.043 242.325 532.804 248.744 536.579 255.617C540.405 262.565 542.225 269.986 542.457 277.927C542.801 289.576 540.35 300.799 538.126 312.106C536.731 319.214 535.75 326.396 534.795 333.569C533.981 339.684 532.809 341.472 526.228 342.699C516.196 344.572 506.067 346.014 495.969 347.578C488.095 348.8 480.24 350.495 472.31 350.944C463.365 351.455 454.115 351.96 445.407 350.424C424.554 346.749 405.883 354.091 397.12 370.82C393.304 378.096 393.951 385.334 397.059 392.741C401.178 402.531 409.078 409.877 415.567 418.132C420.081 423.867 424.7 429.533 429.274 435.231" stroke="white" stroke-linejoin="round"/>
<path d="M-37.5678 -509.988C-40.7317 -505.166 -43.2588 -499.884 -47.1404 -495.61C-57.1982 -484.508 -68.0596 -474.011 -83.9499 -470.2C-90.1392 -468.746 -96.4699 -467.869 -102.848 -467.583C-111.814 -467.147 -120.83 -467.784 -129.801 -467.41C-148.942 -466.614 -165.509 -460.059 -178.433 -446.808C-183.689 -441.419 -185.822 -434.532 -186.135 -427.172C-186.6 -416.061 -185.503 -405.166 -179.883 -395.212C-173.227 -383.385 -162.259 -375.388 -150.064 -368.992C-139.344 -363.374 -128.169 -358.434 -116.989 -353.602C-102.696 -347.422 -95.6099 -336.574 -92.4056 -322.879C-89.3276 -309.717 -85.0265 -296.711 -83.207 -283.404C-80.2806 -261.979 -86.1839 -242.96 -105.162 -228.624C-122.998 -215.154 -135.245 -198.509 -138.853 -176.967C-140.723 -165.819 -143.503 -154.797 -145.308 -143.64C-146.425 -136.729 -144.802 -130.6 -137.423 -126.489C-126.193 -120.215 -115.437 -113.206 -104.212 -106.923C-97.2171 -103.013 -89.3478 -101.187 -81.0842 -101.145C-57.835 -101.033 -35.6472 -96.5004 -14.8745 -86.6634C-2.26438 -80.6938 7.96021 -72.3035 13.4642 -59.9381C19.6202 -46.0932 17.4368 -30.2398 3.02228 -20.192C-2.14308 -16.5868 -8.76405 -16.3059 -14.824 -18.4175C-24.4269 -21.7512 -34.0299 -25.1785 -43.1931 -29.383C-61.3376 -37.703 -80.6395 -42.7737 -100.027 -47.6149C-112.557 -50.7379 -123.352 -46.0979 -133.071 -39.3042C-144.245 -31.5728 -153.327 -21.5423 -159.601 -10.0038C-163.882 -2.1286 -167.687 5.99011 -172.514 13.5844C-175.901 18.936 -179.782 24.4656 -184.821 28.3985C-202.374 42.0889 -209.698 60.5784 -214.337 80.2899C-216.824 90.8573 -215.444 101.617 -211.522 111.777C-207.792 121.445 -203.026 130.767 -198.887 140.309C-196.329 146.228 -193.327 152.122 -191.978 158.303C-190.568 164.778 -193.297 171.014 -196.971 176.661C-201.652 183.843 -206.807 190.792 -211.067 198.199C-219.907 213.509 -224.254 229.667 -221.176 247.248C-219.291 257.935 -215.514 268.261 -209.996 277.808C-204.992 286.516 -196.158 292.158 -187.06 297.248C-180.333 300.993 -174.465 305.675 -170.912 312.511C-162.133 329.367 -168.001 354.603 -192.231 362.483C-197.593 364.229 -202.971 365.934 -208.308 367.75C-219.74 371.651 -225.492 379.605 -226.73 390.529C-228.371 405.695 -231.714 420.662 -236.707 435.186" stroke="white" stroke-linejoin="round"/>
<path d="M836.577 435.653C834.555 427.01 827.854 422.267 819.499 420.038C809.78 417.449 799.742 414.954 789.735 414.509C780.37 414.097 771.105 416.99 762.25 420.624C754.962 423.616 747.593 427.385 739.148 426.383C735.307 425.914 731.061 425.446 727.872 423.69C714.958 416.578 702.465 408.82 691.861 398.824C683.911 391.333 679.544 382.071 679.68 371.668C679.908 354.344 673.186 340.79 656.305 332.769C641.476 325.746 626.677 318.545 610.509 314.163C600.34 311.405 590.601 312.913 580.689 314.631C576.338 315.389 571.875 315.623 567.452 315.984C557.85 316.775 554.276 310.038 553.806 303.286C553.473 298.487 553.705 293.651 553.751 288.828C553.877 274.103 552.169 259.621 547.686 245.425C546.589 241.942 546.564 238.154 546.195 234.493C545.477 227.413 549.576 222.722 556.166 220.629C563.859 218.24 571.757 216.462 579.775 215.315C593.926 213.203 608.275 212.337 622.29 209.771C635.431 207.369 646.752 200.847 657.366 193.337C661.597 190.345 666.176 187.765 670.578 184.975C678.427 179.989 687.529 178.322 696.602 176.683C704.183 175.311 710.753 172.418 716.51 167.497C724.046 161.026 731.673 154.584 739.694 148.67C754.765 137.592 772.45 133.659 791.18 135.621C815.693 138.192 838.846 145.543 860.701 156.119C870.961 161.087 875.929 169.538 876.313 180.157C876.945 197.691 881.66 214.285 889.636 230.091C894.109 238.987 899.021 247.654 903.787 256.4C909.903 267.637 913.279 279.698 916.019 291.909C918.04 300.908 919.738 309.982 921.24 319.065C923.736 334.263 923.115 349.236 915.559 363.296C910.252 373.166 901.351 379.684 891.051 384.867C885.335 387.76 879.477 389.802 873.038 390.485C871.888 390.576 870.77 390.883 869.753 391.389C868.524 392.072 867.514 393.093 866.412 393.969C867.989 394.259 869.636 394.98 871.127 394.765C875.737 394.109 880.225 392.611 884.865 392.297C905.956 390.893 922.907 396.881 926.466 420.703C927.209 425.652 927.744 430.634 928.376 435.597" stroke="white" stroke-linejoin="round"/>
<path d="M71.2267 435.653C64.7624 419.88 58.7075 403.946 51.6216 388.411C48.9884 382.643 44.1566 377.643 39.9616 372.586C32.8858 363.994 25.0265 355.913 18.4056 347.041C13.2694 340.212 10.2188 332.226 9.57593 323.925C8.84307 314.851 13.4019 309.518 21.5695 305.965C28.4634 302.964 35.4735 300.178 42.3573 297.158C46.6887 295.257 51.192 293.492 55.0685 290.949C59.8801 287.794 65.278 285.738 70.7365 285.607C76.382 285.476 82.164 287.11 87.7286 288.524C91.3575 289.46 94.6933 291.333 98.1655 292.803C108.532 297.167 117.639 294.676 126.075 288.421C133.029 283.285 139.817 277.985 146.989 273.186C149.834 271.275 153.438 270.166 156.865 269.21C163.021 267.492 167.984 269.21 171.936 274.431C174.701 278.069 177.157 281.922 179.517 285.808C184.091 293.333 190.96 298.169 199.38 301.639C209.246 305.684 219.203 308.769 230.17 309.088C240.036 309.359 248.896 306.639 257.62 302.884C268.304 298.281 278.847 293.272 289.855 289.489C296.178 287.321 303.304 286.656 310.122 286.366C318.29 286.019 326.543 286.487 334.701 287.176C343.879 287.948 349.206 293.81 352.092 301.156C356.896 313.327 358.834 326.309 357.778 339.231C357.116 347.439 354.058 355.267 349.737 362.402C344.754 370.638 339.977 378.921 338.618 388.332C337.769 394.236 338.112 400.29 338.037 406.283C337.956 413.877 338.037 421.472 338.037 429.066V435.621" stroke="white" stroke-linejoin="round"/>
<path d="M97.2509 435.418C94.4105 433.887 91.2516 432.702 88.7953 430.736C81.3859 424.86 76.549 417.19 73.2285 408.856C70.5093 402.02 68.6039 394.894 66.5266 387.848C63.7873 378.545 59.2992 370.248 51.8695 363.267C45.9258 357.649 40.0276 351.936 34.9481 345.676C31.8297 341.837 29.9849 336.968 31.0008 331.766C32.1886 325.679 36.429 322.07 42.3576 319.953C53.8962 315.838 65.0104 317.355 75.9577 322.088C81.8408 324.635 87.7996 327.135 93.9405 329.055C102.103 331.607 109.699 328.587 116.523 325.033C123.598 321.372 129.855 316.418 136.492 312.055C138.346 310.837 140.287 309.737 142.157 308.538C150.952 302.92 160.1 304.385 169.106 307.71C187.807 314.62 207.199 319.307 226.865 322.837C238.227 324.874 248.659 320.684 258.54 315.575C267.779 310.8 276.735 305.275 286.53 301.759C300.131 296.894 314.429 296.332 328.025 302.47C339.846 307.808 344.345 317.64 345.558 329.158C346.796 340.863 342.414 351.37 337.011 361.567C332.902 369.335 328.884 377.163 327.206 385.699C325.588 393.935 324.492 402.297 326.625 410.664C326.67 411.1 326.67 411.539 326.625 411.975C326.938 419.862 327.253 427.75 327.57 435.638" stroke="white" stroke-linejoin="round"/>
<path d="M190.911 435.419C190.435 435.494 189.733 435.793 189.521 435.606C179.129 426.612 165.559 424.416 152.57 421.265C139.429 418.067 126.035 416.372 112.384 416.784C94.0574 417.336 85.2682 405.908 82.4631 393.158C80.8255 385.704 80.6486 378.283 80.6992 370.787C80.7548 361.479 85.8696 357.172 92.531 355.037C107.755 350.183 122.101 343.226 135.082 334.403C146.98 326.312 160.353 323.442 174.818 324.833C187.64 326.092 200.306 328.18 212.689 331.711C219.987 333.799 227.402 336.117 234.927 336.767C241.053 337.301 247.416 335.363 252.844 332.17C258.495 328.859 263.797 325.029 269.457 321.733C278.525 316.447 287.834 311.817 298.736 310.192C311.104 308.352 330.522 314.747 332.852 329.576C334.171 337.947 332.786 345.888 329.521 353.688C325.19 364.031 320.131 374.205 316.972 384.857C313.777 395.626 313.499 406.863 315.117 418.1C315.931 423.802 314.682 429.758 314.369 435.601" stroke="white" stroke-linejoin="round"/>
<path d="M214.572 435.185C210.695 426.102 202.331 421.401 193.218 418.727C177.853 414.219 162.054 410.979 146.462 407.125C135.56 404.428 124.441 402.242 113.883 398.651C100.297 394.025 99.1143 381.533 107.818 372.202C113.322 366.302 119.948 361.124 126.675 356.409C136.945 349.241 147.776 342.705 160.654 340.115C179.309 336.37 197.403 337.774 215.097 344.798C222.104 347.494 229.385 349.533 236.83 350.884C242.759 352.022 248.455 349.826 253.322 346.609C261.485 341.22 269.344 335.429 277.506 330.04C285.234 324.936 293.766 322.272 303.5 322.909C310.92 323.377 319.961 329.618 320.214 338.762C320.507 349.166 316.065 358.057 312.062 367.267C306.674 379.67 302.176 392.236 300.943 405.796C300.028 415.806 297.349 425.676 295.459 435.606" stroke="white" stroke-linejoin="round"/>
<path d="M-181.828 435.184C-174.889 423.478 -168.051 411.773 -160.98 400.143C-156.118 392.183 -151.407 384.037 -145.752 376.545C-138.747 367.256 -128.411 361.595 -116.983 358.173C-105.46 354.717 -94.6691 349.895 -83.9087 344.918C-75.5744 341.064 -66.6942 339.299 -57.4248 338.733C-46.8465 338.059 -36.3085 336.86 -25.7251 336.205C-17.507 335.708 -9.30406 336.42 -3.55241 342.759C6.89457 354.291 16.9574 366.123 27.278 377.763C35.3647 386.879 42.4406 396.585 47.0601 407.597C50.876 416.675 54.0702 425.974 57.5374 435.179" stroke="white" stroke-linejoin="round"/>
<path d="M541.415 435.653C541.89 423.199 539.565 411.025 537.225 398.833C536.044 392.751 535.263 386.608 534.885 380.437C534.486 373.737 534.688 367 534.834 360.305C534.92 356.503 535.087 352.649 535.845 348.927C536.573 345.322 539.348 343.271 543.305 342.288C552.025 340.103 560.696 337.762 569.319 335.265C575.692 333.392 581.909 331.107 588.262 329.178C599.988 325.638 610.814 328.368 620.856 334.033C633.82 341.347 643.6 351.488 650.246 364.2C655.3 373.892 660.658 383.476 665.823 393.135C672.778 406.137 683.776 415.703 696.057 424.299C700.763 427.577 704.932 431.547 709.35 435.199" stroke="white" stroke-linejoin="round"/>
<path d="M-162.91 435.183C-156.709 418.974 -148.107 404.071 -136.017 390.868C-126.798 380.801 -114.79 375.74 -101.401 373.029C-92.7361 371.34 -84.5289 368.047 -77.2725 363.346C-70.6616 359.048 -63.8082 354.919 -55.5395 354.165C-34.868 352.292 -14.5199 352.554 0.147361 369.11C7.95101 377.917 14.7388 387.543 21.481 397.104C28.7237 407.367 34.8443 418.23 39.0544 429.925C39.7317 431.798 40.323 433.723 40.9497 435.619" stroke="white" stroke-linejoin="round"/>
<path d="M440.66 435.184C433.408 426.125 426.003 417.172 418.973 407.968C415.681 403.7 412.833 399.154 410.467 394.39C402.092 377.267 414.763 362.551 431.694 359.855C435.738 359.208 439.877 359.091 443.986 358.951C462.585 358.314 481.19 357.546 499.799 357.261C511.121 357.097 518.404 361.854 520.991 371.218C523.473 380.175 525.747 389.239 527.056 398.374C528.401 407.635 528.603 417.046 529.033 426.401C529.174 429.454 528.477 432.534 528.163 435.601" stroke="white" stroke-linejoin="round"/>
<path d="M552.767 435.653C552.899 424.444 549.851 413.647 547.592 402.785C545.449 392.437 543.422 382.184 547.41 371.625C549.532 366.007 552.934 361.545 558.049 358.647C568.415 352.78 580.08 349.971 592.053 348.496C602.374 347.232 610.304 352.171 617.572 358.094C633.821 371.349 646.31 387.282 656.408 404.948C662.22 415.117 668.356 425.123 674.35 435.203" stroke="white" stroke-linejoin="round"/>
<path d="M821.912 -350.046C827.907 -349.17 833.941 -348.492 839.88 -347.377C851.757 -345.144 863.291 -341.759 870.993 -332.441C876.932 -325.254 880.556 -316.677 882.749 -307.94C885.13 -298.473 886.095 -288.702 887.662 -279.061C889.739 -266.256 891.564 -253.431 898.478 -241.783C902.607 -234.834 907.894 -229.295 916.051 -226.491C922.202 -224.375 928.52 -224.529 934.974 -225.086C943.93 -225.873 952.805 -227.306 961.969 -225.311C970.055 -223.551 976.894 -220.058 982.135 -214.542C987.917 -208.456 992.93 -201.662 997.803 -194.878C1004.22 -185.982 1004.45 -175.868 1001.95 -166.036C998.773 -153.535 994.649 -141.249 988.488 -129.591C980.563 -114.608 968.013 -106.208 950.076 -104.64C940.473 -103.802 930.87 -102.805 921.222 -102.051C915.243 -101.583 909.173 -100.791 903.264 -101.311C896.391 -101.915 890.154 -104.954 884.832 -109.069C873.753 -117.642 860.89 -122.249 846.991 -125.377C832.799 -128.57 818.951 -133.032 804.834 -136.558C797.678 -138.266 790.422 -139.591 783.101 -140.528C767.939 -142.621 753.171 -139.751 738.67 -136.122C719.515 -131.347 700.208 -126.8 681.507 -120.662C659.026 -113.278 636.758 -105.066 616.192 -93.6324C605.619 -87.7517 598.301 -79.324 595.233 -67.881C593.595 -61.7616 590.982 -55.8622 588.698 -49.8972C585.16 -40.711 578.453 -33.8471 570.3 -27.943C566.166 -24.9558 561.88 -21.9406 558.555 -18.2558C553.248 -12.3704 551.908 -5.5112 553.576 2.27508C556.791 17.2577 559.934 32.3714 558.408 47.8223C557.801 53.9745 556.786 60.0893 556.093 66.2322C554.976 76.1581 554.395 86.0186 562.229 94.2731C567.126 99.4234 573.257 102.233 580.667 103.089C594.631 104.714 606.655 100.477 617.537 92.9246C627.971 85.6618 639.235 79.4834 651.127 74.5007C664.333 68.9759 675.513 60.7682 682.634 49.0302C686.789 42.185 689.079 34.3145 691.762 26.7717C694.406 19.3366 697.322 12.2573 703.579 6.55919C711.11 -0.328136 720.197 -1.99496 729.618 0.257113C741.511 3.09913 752.948 7.5518 764.694 10.9603C774.696 13.8632 784.709 17.15 795.019 18.6576C805.416 20.184 814.225 16.0778 820.032 7.50498C824.045 1.55875 828.265 -4.30323 831.798 -10.4929C837.585 -20.639 846.486 -27.7791 857.003 -33.1354C865.747 -37.5834 872.545 -43.6935 878.736 -50.7353C887.571 -60.7596 893.626 -59.0694 899.327 -48.9327C903.876 -40.8421 905.261 -31.8947 902.39 -22.7131C900.429 -16.4579 896.178 -11.9443 891.048 -7.76793C885.251 -3.07757 879.726 1.89392 874.496 7.1257C866.015 15.6939 860.718 26.1209 856.584 36.913C853.127 45.935 850.302 55.1545 848.128 64.5139C846.819 70.1604 847.623 76.219 846.905 81.9967C846.228 87.4466 845.622 93.1119 843.509 98.1545C839.41 107.987 830.267 112.037 819.557 112.585C803.99 113.376 788.6 111.611 773.17 109.382C760.177 107.456 746.949 107.306 733.909 108.937C724.473 110.145 714.703 109.406 705.1 109.115C691.08 108.647 679.294 112.969 669.099 121.832C661.3 128.623 651.679 133.354 641.236 135.531C627.691 138.472 617.81 146.3 609.394 156.39C604.31 162.477 598.821 168.395 590.189 171.111C583.411 173.241 576.901 173.086 570.28 171.771C560.298 169.79 550.432 167.295 540.461 165.342C537.428 164.757 534.168 165.155 531.019 165.277C525.5 165.487 519.986 166.035 514.462 166.077C507.735 166.129 502.509 162.828 500.371 156.896C499.062 153.262 497.99 149.325 498.036 145.537C498.193 133.069 496.479 121.026 490.824 109.597C487.584 103.066 487.149 96.0195 486.527 88.9964C486.022 83.4341 485.719 77.8156 484.556 72.361C483.04 65.1132 476.47 59.6117 467.64 60.1221C462.586 60.4171 457.532 61.2083 452.478 61.831C447.307 62.4725 445.589 61.9855 444.067 57.4111C441.48 49.6342 439.266 41.7215 437.411 33.7667C434.823 22.703 434.717 11.1804 428.465 0.856403C423.502 -7.34658 413.151 -11.7852 403.311 -9.49565C396.856 -8.00207 390.761 -5.2209 384.342 -3.53535C374.962 -1.07727 365.45 0.95474 355.978 3.09445C344.793 5.62276 333.523 7.82803 322.418 10.6232C310.819 13.5355 299.543 17.74 287.818 19.9874C275.94 22.2582 264.199 21.1813 255.203 11.8968C252.373 8.97983 249.244 6.3157 246.237 3.54859C238.474 -3.58688 229.396 -3.63368 222.219 4.06832C217.58 9.04068 213.931 14.8043 209.806 20.1934C208.796 21.5512 207.785 23.0728 206.435 24.0561C205.566 24.6741 203.726 24.9316 202.761 24.5243C192.622 20.0482 182.544 15.3053 176.312 6.15185C172.638 0.762789 171.541 -5.39882 172.946 -11.7571C175.236 -22.1419 178.299 -32.419 179.825 -42.8975C181.109 -51.6951 180.558 -60.6894 176.717 -69.1639C168.185 -87.9999 159.785 -106.892 151.117 -125.672C147.372 -133.791 140.114 -136.82 130.83 -137.162C117.184 -137.672 103.922 -135.336 90.624 -133.135C83.2045 -131.908 75.699 -130.925 68.3856 -133.201C56.3668 -136.946 52.9249 -144.288 52.4043 -154.616C51.5527 -169.445 55.2725 -184.191 63.1293 -197.134C66.1618 -202.149 68.6333 -207.435 71.7214 -212.431C78.0138 -222.581 81.764 -233.626 84.3063 -244.91C87.4449 -258.853 95.011 -270.619 103.406 -282.104C106.499 -286.318 110.037 -290.279 113.297 -294.404C122.395 -305.908 143.956 -311.953 159.234 -305.44C167.21 -302.036 170.859 -295.64 174.847 -289.165C181.114 -279.056 188.306 -269.72 198.328 -262.262C204.131 -257.945 210.1 -253.216 212.637 -246.193C216.407 -235.785 213.198 -226.659 205.97 -218.634C199.365 -211.293 190.681 -206.157 182.418 -200.571C173.427 -194.489 165.542 -187.391 160.589 -177.854C156.884 -170.676 156.717 -163.044 157.501 -155.506C158.006 -150.632 161.337 -146.175 165.901 -143.768C186.259 -132.999 201.917 -116.776 220.688 -104.205C227.531 -99.6255 234.658 -95.613 242.926 -93.7354C244.632 -93.3893 246.376 -93.2321 248.122 -93.2672C263.259 -93.2298 278.397 -93.3609 293.534 -93.2111C307.605 -93.0753 320.725 -96.4042 333.255 -102.027C342.66 -106.241 352.203 -110.324 362.609 -111.523C372.349 -112.646 381.901 -110.853 390.973 -107.267C405.074 -101.69 419.095 -95.8705 434.03 -92.401C445.826 -89.6573 457.683 -86.9698 469.97 -87.1431C480.078 -87.2835 490.151 -87.6768 500.245 -87.9952C508.599 -88.2574 516.979 -88.2949 525.308 -88.9316C534.138 -89.6105 542.962 -90.149 551.378 -93.5716C562.79 -98.2162 567.5 -106.794 569.82 -117.328C571.842 -126.599 572.069 -136.347 576.972 -144.896C579.726 -149.696 583.34 -154.106 586.868 -158.474C588.718 -160.769 591.159 -162.688 593.438 -164.641C601.864 -171.921 603.102 -180.976 601.525 -190.954C600.514 -197.373 600.009 -203.923 602.44 -210.216C605.012 -216.874 610.557 -220.919 617.572 -222.858C625.482 -225.021 633.745 -226.112 641.645 -228.279C660.629 -233.481 679.046 -240.294 692.591 -254.199C706.136 -268.105 715.537 -284.464 719.156 -303.155C720.632 -310.81 721.258 -318.606 722.047 -326.369C723.058 -336.435 728.314 -340.167 738.635 -340.157C756.941 -340.157 774.408 -344.259 792.067 -347.485C801.724 -349.307 811.564 -350.159 821.417 -350.027" stroke="white" stroke-linejoin="round"/>
<path d="M491.751 -39.8036C494.591 -39.0732 497.543 -38.6003 500.242 -37.5656C508.834 -34.2881 512.69 -27.6864 514.48 -19.652C516.174 -12.2631 516.025 -4.61337 514.045 2.71425C509.238 20.7449 488.016 23.9053 474.269 15.824C466.51 11.245 462.74 3.96437 460.648 -3.90618C458.808 -10.8731 457.11 -17.9524 458.975 -25.3688C460.491 -31.3899 463.781 -35.276 469.932 -37.6967C476.907 -40.4404 484.084 -39.6257 491.256 -39.8036" stroke="white" stroke-linejoin="round"/>
<path d="M488.917 -27.5368C499.304 -25.4111 503.357 -18.3599 504.439 -9.56232C505.748 1.06598 496.671 9.26429 485.132 8.39342C480.512 8.04227 477.364 5.28453 474.786 2.21777C468.423 -5.35314 466.947 -17.7138 476.12 -24.4981C479.815 -27.2325 483.979 -27.7756 488.442 -27.5368" stroke="white" stroke-linejoin="round"/>
<path d="M373.486 -83.6222C392.338 -78.9401 410.533 -72.2869 429.709 -68.4382C438.928 -66.5935 447.398 -61.6679 456.274 -58.2219C463.218 -55.5204 470.511 -54.5278 478.007 -53.6241C489.828 -52.2195 501.852 -54.4201 513.532 -51.2597C521.836 -49.0076 526.198 -44.5596 526.254 -36.7452C526.36 -23.0174 526.759 -9.26612 526.097 4.45704C525.733 12.0046 524.722 19.847 517.803 25.5264C513.254 29.244 508.236 31.393 502.135 31.173C495.671 30.9435 489.09 31.2104 482.768 30.1851C469.177 27.9845 460.277 19.9547 455.414 8.36191C451.573 -0.791551 448.561 -10.2587 445.407 -19.651C442.253 -29.0432 434.98 -34.3714 425.473 -37.0636C414.582 -40.1491 403.559 -43.1971 392.348 -44.789C384.924 -45.8425 377.085 -43.8526 370.211 -40.5752C363.957 -37.6448 357.951 -34.2814 352.244 -30.5134C342.428 -23.9866 331.931 -19.1453 320.023 -16.9915C306.144 -14.4773 294.439 -25.7189 297.335 -38.913C298.346 -43.4593 298.942 -48.1835 300.757 -52.4489C303.83 -59.6593 309.278 -65.3012 317.203 -68.2228C331.163 -73.3731 345.142 -78.4953 359.35 -82.9948C363.489 -84.3058 368.447 -83.463 372.996 -83.6081" stroke="white" stroke-linejoin="round"/>
<path d="M366.871 24.1744C371.925 25.0499 376.979 25.8927 382.034 26.8104C402.417 30.5045 408.255 48.9425 399.87 63.5412C391.303 78.463 377.076 85.8419 358.855 86.3663C351.926 86.563 344.971 86.1744 338.047 86.4553C329.677 86.7971 321.293 87.2887 312.984 88.2251C303.32 89.3114 297.619 84.8494 297.316 75.8832C296.906 64.37 301.541 55.048 310.098 46.9105C318.75 38.6841 328.111 31.5674 339.953 27.6906C348.519 24.8814 357.41 24.0433 366.442 24.1744H366.871Z" stroke="white" stroke-linejoin="round"/>
<path d="M206.998 29.4307C219.012 34.6559 228.13 42.6388 233.437 53.9882C236.383 60.2996 235.559 66.6672 231.516 72.3232C228.11 77.0848 224.026 81.4298 220.24 85.9573C211.603 96.2579 207.605 107.963 208.459 121.012C208.818 126.284 209.727 131.523 210.299 136.791C211.815 150.621 206.609 162.519 196.986 172.66C184.285 186.041 175.44 201.286 168.521 217.795C165.276 225.525 159.575 232.169 152.575 237.549C142.891 244.989 133.172 252.442 121.835 257.682C113.577 261.516 104.848 262.228 95.8317 260.35C75.5695 256.137 57.0914 248.046 39.5585 237.97C25.1743 229.702 11.7605 220.155 -0.111724 209.002C-8.9161 200.738 -16.7501 191.505 -18.9638 179.688C-20.7735 170.352 -20.1603 160.752 -17.1746 151.68C-11.9027 135.607 -4.5779 120.175 4.64426 105.711C7.14535 101.765 10.3613 98.2471 14.1512 95.3121C16.8551 93.2707 20.8833 92.0019 24.4212 91.7772C37.8502 90.9344 50.991 93.3363 64.1571 95.5228C75.3067 97.3629 82.802 103.763 89.7363 111.329C94.2042 116.208 98.667 121.26 103.979 125.273C113.946 132.801 124.469 132.862 136.968 125.362C152.661 115.941 164.821 104.002 169.213 86.4021C172.751 72.3091 181.818 60.8099 190.441 49.1469C194.029 44.301 197.613 39.4503 201.353 34.7074C202.869 32.8018 204.784 31.1771 206.518 29.426L206.998 29.4307Z" stroke="white" stroke-linejoin="round"/>
<path d="M364.033 36.4399C366.56 37.0252 369.123 37.4747 371.589 38.2191C379.241 40.5321 385.109 44.6336 385.711 52.6587C386.216 59.5788 382.289 64.7899 376.29 68.367C365.58 74.7533 354.607 74.7346 343.175 69.383C329.721 63.0856 332.9 48.2903 342.245 42.1053C348.684 37.8399 355.891 36.4868 363.558 36.4399H364.033Z" stroke="white" stroke-linejoin="round"/>
<path d="M444.475 70.6182C446.684 73.2495 449.024 75.7684 451.045 78.5262C456.029 85.3339 460.527 92.46 465.814 99.0524C474.365 109.718 475.048 121.662 473.855 134.168C473.526 137.633 474.052 141.191 474.264 144.679C475.068 158.079 470.276 169.695 461.538 180.216C457.737 184.795 454.462 189.777 451.121 194.66C450.343 195.793 450.136 197.264 449.655 198.579C447.234 205.237 448.038 207.007 455.357 209.034C459.663 210.242 464.196 210.739 468.573 211.745C478.105 213.946 485.409 219.208 490.771 226.648C500.066 239.557 509.371 252.47 518.155 265.673C524.189 274.752 524.932 284.818 521.516 294.969C518.483 304.043 514.308 312.517 506.975 319.592C498.17 328.085 487.016 331.967 475.174 334.312C462.276 336.864 449.468 335.502 436.873 331.831C426.329 328.716 415.316 327.182 404.249 327.285C400.359 327.335 396.506 326.578 392.973 325.07C387.989 322.841 385.624 318.159 384.487 313.365C383.308 308.63 382.673 303.793 382.592 298.935C382.551 289.149 382.809 279.34 383.532 269.583C384.067 262.363 387.464 256.07 392.867 250.714C399.269 244.368 405.568 237.935 411.764 231.415C413.474 229.562 414.906 227.503 416.02 225.295C418.961 219.653 418.006 216.497 411.279 214.058C404.257 211.502 396.976 209.603 389.546 208.388C382.84 207.365 376.028 207.073 369.249 207.517C364.2 207.889 359.258 209.061 354.637 210.982C347.778 213.791 345.539 219.981 343.68 226.185C342.497 230.15 341.471 234.186 339.859 238.002C334.329 251.112 322.887 257.002 308.674 258.959C304.201 259.573 299.511 259.399 294.983 258.987C282.438 257.84 278.253 253.42 279.532 241.102C280.614 230.661 282.807 220.281 285.152 209.999C286.972 202.002 289.676 194.173 292.162 186.322C294.72 178.254 297.636 170.285 300.148 162.204C304.257 148.954 312.126 138.415 325.252 131.541C336.437 125.684 347.49 119.579 358.888 114.115C365.832 110.786 373.388 108.566 380.58 105.659C392.745 100.743 402.884 92.858 413.715 85.9941C420.751 81.5321 427.761 77.0139 435.059 72.9452C437.586 71.5405 440.982 71.372 443.975 70.6416L444.475 70.6182Z" stroke="white" stroke-linejoin="round"/>
<path d="M428.366 100.417C439.768 103.694 443.473 112.759 446.748 121.907C450.049 131.131 450.534 140.828 449.518 150.356C447.638 167.956 430.757 188.889 407.063 188.093C399.987 187.85 392.84 188.458 385.785 187.962C373.933 187.129 362.116 185.794 350.309 184.507C345.862 184.038 341.348 183.472 337.083 182.278C328.384 179.843 325.296 173.822 328.071 165.703C330.335 159.064 335.354 154.172 340.909 150.005C360.317 135.457 380.2 121.477 401.397 109.186C405.289 106.929 409.1 104.443 413.259 102.702C417.815 100.703 422.88 99.9119 427.891 100.417" stroke="white" stroke-linejoin="round"/>
<path d="M275.121 104.798C280.731 107.214 281.934 109.864 280.847 115.328C278.947 124.889 275.207 133.588 268.525 141.191C262.536 148.018 256.592 147.639 252.428 139.843C249.188 133.756 246.913 127.595 249.026 120.558C252.099 110.323 259.448 104.817 270.85 104.798H274.666" stroke="white" stroke-linejoin="round"/>
<path d="M45.2156 105.68C50.2698 106.7 55.4806 107.257 60.3124 108.84C70.3197 112.117 77.1681 119.141 83.5616 126.683C90.132 134.423 97.8548 140.982 108.605 143.323C120.033 145.819 130.843 143.904 141.265 139.039C148.508 135.664 155.791 132.016 163.503 129.97C176.644 126.543 186.333 135.05 187.602 146.863C188.494 154.616 186.256 162.4 181.319 168.714C170.054 183.374 163.322 200.084 154.74 216.003C146.405 231.454 132.39 241.993 115.155 248.426C104.375 252.453 93.7003 249.723 83.5262 245.837C66.7413 239.423 52.2813 229.736 38.9787 218.34C28.1022 209.018 17.7512 199.307 9.2501 188.037C4.09989 181.215 2.13886 173.523 1.05727 165.273C-0.701584 151.901 2.71505 139.522 8.44142 127.634C12.7071 118.794 18.2061 110.16 29.1635 107.136C34.0661 105.778 39.5195 106.101 44.7203 105.666" stroke="white" stroke-linejoin="round"/>
<path d="M417.959 126.712C426.738 128.482 430.513 143.329 423.544 152.065C418.788 158.026 411.985 161.191 403.772 160.844C399.658 160.671 395.412 160.516 391.51 159.44C386.608 158.105 385.385 155.315 387.244 151.255C391.328 142.359 398.131 135.336 406.182 129.39C409.362 127.049 413.334 126.22 417.484 126.703" stroke="white" stroke-linejoin="round"/>
<path d="M40.4898 133.72C45.4783 135.873 47.1259 138.528 45.0992 142.873C43.684 145.902 41.5613 148.96 38.9483 151.123C35.845 153.675 31.4883 152.228 30.1287 148.604C27.5006 141.614 32.8176 132.685 40.0147 133.72" stroke="white" stroke-linejoin="round"/>
<path d="M92.5206 -100.276C104.752 -98.6704 110.422 -90.7203 114.279 -80.9956C119.774 -67.1179 125.292 -53.2403 130.831 -39.3626C136.75 -24.38 133.358 -10.0434 125.408 3.02422C115.805 18.8777 102.24 32.0531 87.2693 43.8425C80.3602 49.2737 72.1826 52.9445 63.1761 53.8528C48.7919 55.3089 39.8359 46.1742 42.4539 32.9473C45.1023 19.5988 48.5189 6.37659 51.3291 -6.94859C54.2251 -20.6437 50.7125 -33.7628 46.6641 -46.8258C43.0554 -58.4701 39.5882 -70.1519 36.2879 -81.8852C34.7109 -87.5318 38.4359 -93.4452 45.254 -95.3321C52.0386 -97.2373 58.9994 -98.5555 66.0468 -99.2697C74.6389 -100.103 83.3725 -99.9814 92.0455 -100.276H92.5206Z" stroke="white" stroke-linejoin="round"/>
<path d="M372.544 -100.276C390.835 -94.5776 409.086 -88.7718 427.428 -83.2235C440.609 -79.2344 453.911 -75.6152 467.148 -71.7852C479.142 -68.3158 491.065 -69.3084 503.114 -71.7291C513.849 -73.8828 524.639 -75.7041 535.738 -75.8306C544.098 -75.9289 552.448 -76.9917 560.812 -77.4693C571.502 -78.0733 573.625 -69.978 572.128 -63.8913C570.571 -57.1407 566.79 -51.0043 561.307 -46.3288C557.537 -43.1169 554.07 -39.596 550.396 -36.2858C542.248 -28.9584 538.907 -19.8564 538.559 -9.55117C538.169 1.80285 540.277 12.9555 541.247 24.2019C542.127 34.4462 539.044 44.2318 533.297 53.0715C531.154 56.2495 528.622 59.1874 525.751 61.827C521.637 65.7225 518.17 65.4696 513.98 61.4337C510.655 58.2358 507.511 54.8788 504.013 51.8308C498.039 46.6571 490.402 44.5501 482.756 42.6118C474.982 40.6406 467.189 38.8989 460.517 34.3151C453.194 29.31 450.207 21.9873 447.321 14.5474C444.733 7.85208 442.514 1.02094 439.684 -5.58546C434.862 -16.8458 425.325 -22.7125 412.78 -24.8943C398.801 -27.3243 385.559 -25.3017 373.05 -19.1775C351.574 -8.6569 328.452 -2.50466 304.884 2.07909C295.862 3.83486 285.997 4.77595 278.016 -1.71808C275.019 -4.15744 271.885 -6.86836 270.066 -10.0568C265.517 -18.0164 261.438 -26.2381 257.729 -34.5675C255.232 -40.1579 256.435 -45.369 261.342 -49.9247C266.25 -54.4803 270.97 -59.242 275.004 -64.3923C281.832 -73.1524 291.207 -78.0265 302.089 -80.4564C317.196 -83.8322 331.519 -89.0246 345.59 -94.9709C353.98 -98.5246 362.719 -100.753 372.074 -100.248" stroke="white" stroke-linejoin="round"/>
<path d="M144.075 158.698C145.338 158.843 146.602 158.974 147.86 159.138C152.05 159.691 154.431 162.21 154.476 166.161C154.562 177.707 150.271 188.486 147.259 199.437C143.802 212.027 136.756 222.665 125.202 230.638C113.012 239.066 100.063 240.283 86.9321 233.916C76.9753 229.098 68.5298 222.15 63.1774 212.603C57.8049 202.972 57.0568 193.538 64.0569 184.084C69.48 176.752 74.6706 169.284 82.5905 164.003C87.7458 160.562 93.8361 159.284 100.063 159.199C112.835 159.021 125.607 159.162 138.379 159.124C140.112 159.124 141.846 158.853 143.584 158.708" stroke="white" stroke-linejoin="round"/>
<path d="M241.999 181.921C250.379 184.327 252.557 190.494 253.988 197.671C254.998 202.69 254.407 207.415 253.285 212.143C251.476 219.766 246.538 224.94 238.219 227.06C230.79 228.947 222.946 228.924 215.53 226.995C200.984 223.32 199.787 213.253 204.472 203.524C211.325 189.309 224.466 182.202 241.529 181.921" stroke="white" stroke-linejoin="round"/>
<path d="M116.168 181.921C125.771 185.076 128.389 190.1 126.181 199.464C124.078 208.36 119.363 214.85 109.542 217.406C102.376 219.279 94.8044 213.576 94.0159 207.33C92.621 196.285 98.6051 187.9 107.718 183.339C109.987 182.206 113.015 182.361 115.698 181.935" stroke="white" stroke-linejoin="round"/>
<path d="M468.106 231.88C478.326 233.753 485.477 239.76 491.214 247.26C496.42 254.064 501.54 260.993 505.841 268.302C514.382 282.816 509.884 296.483 499.776 307.664C491.55 316.971 479.961 323.199 467.156 325.194C460.529 326.366 453.686 325.909 447.308 323.869C436.068 320.188 424.843 316.462 413.728 312.463C402.998 308.6 398.151 297.157 400.183 286.169C401.813 276.728 406.379 267.933 413.324 260.862C419.43 254.555 425.901 248.56 432.707 242.901C442.568 234.727 454.349 231.056 467.646 231.88H468.106Z" stroke="white" stroke-linejoin="round"/>
<path d="M462.422 248.528C471.803 249.74 478.914 254.024 483.74 261.638C487.112 266.975 489.78 272.697 490.083 278.751C490.286 282.786 488.668 287.131 486.909 290.966C482.932 299.651 476.215 306.07 466.693 309.877C455.574 314.316 445.465 311.221 435.483 306.749C433.45 305.808 431.548 304.641 429.817 303.275C422.352 297.484 418.926 290.128 422.332 281.429C428.129 266.61 438.293 255.284 454.881 249.885C457.135 249.15 459.597 248.949 461.957 248.528H462.422Z" stroke="white" stroke-linejoin="round"/>
<path d="M295.93 340.549C302.394 343.335 304.649 347.338 302.445 354.104C300.423 360.373 298.245 366.788 294.808 372.448C289.638 380.974 283.588 389.079 277.412 397.029C270.245 406.248 263.472 408.388 251.969 404.881C239.905 401.201 227.653 399.791 215.038 400.11C207.795 400.292 200.492 400.611 193.305 400.049C177.718 398.832 161.924 398.518 146.963 393.494C143.645 392.372 140.476 390.903 137.517 389.116C129.936 384.556 128.925 377.247 134.636 370.758C143.334 360.893 155.217 356.67 168.236 354.586C173.392 353.762 178.633 352.905 183.839 352.901C193.497 352.901 202.797 354.848 211.263 359.385C218.728 363.393 226.031 367.649 233.501 371.61C240.9 375.52 247.87 373.558 253.718 368.904C258.772 364.887 262.749 359.746 267.591 355.48C272.548 351.134 277.758 347.044 283.199 343.227C286.686 340.774 291.022 340.119 295.44 340.526L295.93 340.549Z" stroke="white" stroke-linejoin="round"/>
</g>
</g>
</svg>