<svg width="208" height="16" viewBox="0 0 208 16" fill="none" xmlns="http://www.w3.org/2000/svg">
<g clip-path="url(#clip0_4591_305020)">
<path d="M3.32397 7V6C3.32397 4.345 3.78231 3 6.07397 3C8.36564 3 8.82397 4.345 8.82397 6V7" stroke="white" stroke-width="1.5" stroke-linecap="round" stroke-linejoin="round"/>
<path d="M8.3656 13H3.78227C1.94893 13 1.4906 12.5 1.4906 10.5V9.5C1.4906 7.5 1.94893 7 3.78227 7H8.3656C10.1989 7 10.6573 7.5 10.6573 9.5V10.5C10.6573 12.5 10.1989 13 8.3656 13Z" stroke="white" stroke-width="1.5" stroke-linecap="round" stroke-linejoin="round"/>
</g>
<path d="M23.424 12.665C22.852 12.665 22.3496 12.5917 21.917 12.445C21.4916 12.2983 21.1323 12.1003 20.839 11.851C20.553 11.5943 20.333 11.2937 20.179 10.949C20.025 10.6043 19.937 10.2377 19.915 9.849H21.026C21.092 10.4723 21.3266 10.949 21.73 11.279C22.1333 11.6017 22.709 11.763 23.457 11.763C23.7283 11.763 23.9776 11.7337 24.205 11.675C24.4396 11.609 24.6376 11.5173 24.799 11.4C24.9676 11.2753 25.0996 11.1213 25.195 10.938C25.2903 10.7547 25.338 10.5383 25.338 10.289C25.338 10.025 25.2793 9.805 25.162 9.629C25.052 9.453 24.8906 9.30633 24.678 9.189C24.4726 9.07167 24.2233 8.97267 23.93 8.892C23.644 8.81133 23.3213 8.73067 22.962 8.65C22.5953 8.57667 22.247 8.48867 21.917 8.386C21.5943 8.28333 21.3083 8.14767 21.059 7.979C20.8096 7.803 20.6116 7.58667 20.465 7.33C20.3256 7.07333 20.256 6.747 20.256 6.351C20.256 6.00633 20.3256 5.69833 20.465 5.427C20.6043 5.15567 20.7986 4.92833 21.048 4.745C21.2973 4.55433 21.5943 4.41133 21.939 4.316C22.291 4.21333 22.676 4.162 23.094 4.162C23.6 4.162 24.0363 4.22433 24.403 4.349C24.7696 4.46633 25.0776 4.63133 25.327 4.844C25.5836 5.05667 25.7816 5.30967 25.921 5.603C26.0603 5.89633 26.1556 6.219 26.207 6.571H25.118C25.0446 6.07233 24.8356 5.69467 24.491 5.438C24.1463 5.174 23.6843 5.042 23.105 5.042C22.5623 5.042 22.1296 5.14833 21.807 5.361C21.4843 5.57367 21.323 5.88533 21.323 6.296C21.323 6.516 21.3743 6.703 21.477 6.857C21.587 7.00367 21.7336 7.12833 21.917 7.231C22.1076 7.33367 22.3313 7.42167 22.588 7.495C22.852 7.561 23.138 7.627 23.446 7.693C23.842 7.77367 24.2196 7.86533 24.579 7.968C24.9456 8.07067 25.2683 8.21733 25.547 8.408C25.833 8.59133 26.0566 8.82967 26.218 9.123C26.3866 9.41633 26.471 9.79033 26.471 10.245C26.471 10.6337 26.394 10.9783 26.24 11.279C26.0933 11.5797 25.8843 11.8327 25.613 12.038C25.3416 12.2433 25.019 12.3973 24.645 12.5C24.271 12.61 23.864 12.665 23.424 12.665ZM30.2316 12.665C29.7769 12.665 29.3699 12.5843 29.0106 12.423C28.6586 12.2617 28.3579 12.0417 28.1086 11.763C27.8593 11.477 27.6686 11.147 27.5366 10.773C27.4119 10.3917 27.3496 9.98467 27.3496 9.552C27.3496 9.12667 27.4156 8.727 27.5476 8.353C27.6869 7.97167 27.8776 7.64167 28.1196 7.363C28.3689 7.077 28.6659 6.85333 29.0106 6.692C29.3626 6.53067 29.7513 6.45 30.1766 6.45C30.6166 6.45 31.0053 6.53067 31.3426 6.692C31.6799 6.85333 31.9659 7.077 32.2006 7.363C32.4426 7.65633 32.6223 8.00833 32.7396 8.419C32.8643 8.82967 32.9266 9.288 32.9266 9.794H28.3946C28.4166 10.08 28.4716 10.3477 28.5596 10.597C28.6476 10.8463 28.7686 11.0627 28.9226 11.246C29.0766 11.4293 29.2636 11.5723 29.4836 11.675C29.7036 11.7777 29.9566 11.829 30.2426 11.829C30.6533 11.829 30.9906 11.741 31.2546 11.565C31.5259 11.3817 31.7093 11.1323 31.8046 10.817H32.8056C32.6736 11.367 32.3803 11.8143 31.9256 12.159C31.4783 12.4963 30.9136 12.665 30.2316 12.665ZM30.1766 7.242C29.9126 7.242 29.6779 7.28967 29.4726 7.385C29.2673 7.473 29.0913 7.59767 28.9446 7.759C28.7979 7.92033 28.6806 8.111 28.5926 8.331C28.5046 8.551 28.4459 8.793 28.4166 9.057H31.8376C31.8083 8.485 31.6506 8.04133 31.3646 7.726C31.0859 7.40333 30.6899 7.242 30.1766 7.242ZM36.5802 12.665C36.1402 12.665 35.7406 12.5843 35.3812 12.423C35.0292 12.2617 34.7286 12.0417 34.4792 11.763C34.2299 11.477 34.0356 11.147 33.8962 10.773C33.7642 10.3917 33.6982 9.98467 33.6982 9.552C33.6982 9.12667 33.7642 8.727 33.8962 8.353C34.0356 7.97167 34.2299 7.64167 34.4792 7.363C34.7286 7.077 35.0292 6.85333 35.3812 6.692C35.7406 6.53067 36.1402 6.45 36.5802 6.45C37.2916 6.45 37.8672 6.637 38.3072 7.011C38.7546 7.37767 39.0296 7.88 39.1322 8.518H38.1092C38.0359 8.12933 37.8709 7.825 37.6142 7.605C37.3576 7.385 37.0129 7.275 36.5802 7.275C36.2796 7.275 36.0119 7.33367 35.7772 7.451C35.5499 7.56833 35.3592 7.72967 35.2052 7.935C35.0512 8.14033 34.9339 8.38233 34.8532 8.661C34.7799 8.93967 34.7432 9.23667 34.7432 9.552C34.7432 9.87467 34.7799 10.1753 34.8532 10.454C34.9339 10.7253 35.0512 10.9637 35.2052 11.169C35.3592 11.3743 35.5499 11.5357 35.7772 11.653C36.0119 11.7703 36.2796 11.829 36.5802 11.829C37.0422 11.829 37.4052 11.7043 37.6692 11.455C37.9406 11.1983 38.0946 10.85 38.1312 10.41H39.1432C39.0772 11.1213 38.8206 11.675 38.3732 12.071C37.9332 12.467 37.3356 12.665 36.5802 12.665ZM43.9455 12.5V11.675H43.9235C43.7108 11.9683 43.4652 12.203 43.1865 12.379C42.9152 12.5477 42.5668 12.632 42.1415 12.632C41.5255 12.632 41.0378 12.4597 40.6785 12.115C40.3192 11.7703 40.1395 11.2863 40.1395 10.663V6.593H41.1625V10.608C41.1625 10.982 41.2725 11.2753 41.4925 11.488C41.7198 11.6933 42.0388 11.796 42.4495 11.796C42.6768 11.796 42.8822 11.7557 43.0655 11.675C43.2488 11.5943 43.4028 11.4843 43.5275 11.345C43.6595 11.1983 43.7585 11.026 43.8245 10.828C43.8978 10.63 43.9345 10.4173 43.9345 10.19V6.593H44.9575V12.5H43.9455ZM47.3935 7.66H47.4265C47.6098 7.31533 47.8482 7.04033 48.1415 6.835C48.4348 6.62233 48.7795 6.516 49.1755 6.516C49.2562 6.516 49.3222 6.52333 49.3735 6.538C49.4322 6.54533 49.4908 6.56 49.5495 6.582V7.55H49.5165C49.4432 7.528 49.3772 7.51333 49.3185 7.506C49.2598 7.49867 49.1865 7.495 49.0985 7.495C48.8712 7.495 48.6548 7.539 48.4495 7.627C48.2442 7.70767 48.0645 7.825 47.9105 7.979C47.7565 8.133 47.6318 8.32 47.5365 8.54C47.4485 8.76 47.4045 9.00933 47.4045 9.288V12.5H46.3815V6.593H47.3935V7.66ZM52.8976 12.665C52.4429 12.665 52.0359 12.5843 51.6766 12.423C51.3246 12.2617 51.0239 12.0417 50.7746 11.763C50.5253 11.477 50.3346 11.147 50.2026 10.773C50.0779 10.3917 50.0156 9.98467 50.0156 9.552C50.0156 9.12667 50.0816 8.727 50.2136 8.353C50.3529 7.97167 50.5436 7.64167 50.7856 7.363C51.0349 7.077 51.3319 6.85333 51.6766 6.692C52.0286 6.53067 52.4173 6.45 52.8426 6.45C53.2826 6.45 53.6713 6.53067 54.0086 6.692C54.3459 6.85333 54.6319 7.077 54.8666 7.363C55.1086 7.65633 55.2883 8.00833 55.4056 8.419C55.5303 8.82967 55.5926 9.288 55.5926 9.794H51.0606C51.0826 10.08 51.1376 10.3477 51.2256 10.597C51.3136 10.8463 51.4346 11.0627 51.5886 11.246C51.7426 11.4293 51.9296 11.5723 52.1496 11.675C52.3696 11.7777 52.6226 11.829 52.9086 11.829C53.3193 11.829 53.6566 11.741 53.9206 11.565C54.1919 11.3817 54.3753 11.1323 54.4706 10.817H55.4716C55.3396 11.367 55.0463 11.8143 54.5916 12.159C54.1443 12.4963 53.5796 12.665 52.8976 12.665ZM52.8426 7.242C52.5786 7.242 52.3439 7.28967 52.1386 7.385C51.9333 7.473 51.7573 7.59767 51.6106 7.759C51.4639 7.92033 51.3466 8.111 51.2586 8.331C51.1706 8.551 51.1119 8.793 51.0826 9.057H54.5036C54.4743 8.485 54.3166 8.04133 54.0306 7.726C53.7519 7.40333 53.3559 7.242 52.8426 7.242ZM58.9712 12.676C58.5752 12.676 58.2159 12.6027 57.8932 12.456C57.5706 12.3093 57.2956 12.104 57.0682 11.84C56.8409 11.5687 56.6649 11.2423 56.5402 10.861C56.4229 10.4723 56.3642 10.0397 56.3642 9.563C56.3642 9.079 56.4302 8.64633 56.5622 8.265C56.6942 7.87633 56.8739 7.55 57.1012 7.286C57.3359 7.01467 57.6109 6.80933 57.9262 6.67C58.2416 6.52333 58.5826 6.45 58.9492 6.45C59.3672 6.45 59.7339 6.54533 60.0492 6.736C60.3719 6.92667 60.6286 7.17967 60.8192 7.495H60.8412C60.8266 7.363 60.8156 7.198 60.8082 7C60.8082 6.802 60.8082 6.604 60.8082 6.406V4.316H61.8312V12.5H60.8192V11.653H60.7972C60.6066 11.9757 60.3572 12.2287 60.0492 12.412C59.7486 12.588 59.3892 12.676 58.9712 12.676ZM59.0482 11.829C59.3636 11.829 59.6349 11.774 59.8622 11.664C60.0896 11.5467 60.2766 11.389 60.4232 11.191C60.5772 10.9857 60.6872 10.7473 60.7532 10.476C60.8266 10.1973 60.8632 9.89667 60.8632 9.574C60.8632 9.244 60.8229 8.93967 60.7422 8.661C60.6689 8.38233 60.5552 8.144 60.4012 7.946C60.2472 7.74067 60.0566 7.583 59.8292 7.473C59.6019 7.363 59.3416 7.308 59.0482 7.308C58.7769 7.308 58.5386 7.36667 58.3332 7.484C58.1279 7.594 57.9556 7.75167 57.8162 7.957C57.6842 8.155 57.5816 8.39333 57.5082 8.672C57.4422 8.95067 57.4092 9.25133 57.4092 9.574C57.4092 9.89667 57.4422 10.1973 57.5082 10.476C57.5816 10.7473 57.6842 10.9857 57.8162 11.191C57.9556 11.389 58.1279 11.5467 58.3332 11.664C58.5386 11.774 58.7769 11.829 59.0482 11.829ZM69.0509 12.676C68.6549 12.676 68.2955 12.5917 67.9729 12.423C67.6502 12.247 67.3935 11.994 67.2029 11.664H67.1699V12.5H66.1579V4.316H67.1809V6.406C67.1809 6.63333 67.1772 6.846 67.1699 7.044C67.1625 7.242 67.1552 7.40333 67.1479 7.528H67.1809C67.3715 7.21267 67.6282 6.956 67.9509 6.758C68.2735 6.55267 68.6512 6.45 69.0839 6.45C69.4579 6.45 69.7989 6.52333 70.1069 6.67C70.4149 6.80933 70.6789 7.01467 70.8989 7.286C71.1262 7.55 71.2985 7.87633 71.4159 8.265C71.5405 8.64633 71.6029 9.079 71.6029 9.563C71.6029 10.0397 71.5442 10.4723 71.4269 10.861C71.3095 11.2423 71.1409 11.5687 70.9209 11.84C70.7009 12.104 70.4332 12.3093 70.1179 12.456C69.8025 12.6027 69.4469 12.676 69.0509 12.676ZM68.9409 11.829C69.2122 11.829 69.4469 11.774 69.6449 11.664C69.8502 11.5467 70.0189 11.389 70.1509 11.191C70.2902 10.9857 70.3929 10.7473 70.4589 10.476C70.5249 10.1973 70.5579 9.89667 70.5579 9.574C70.5579 9.25133 70.5249 8.95067 70.4589 8.672C70.3929 8.39333 70.2939 8.155 70.1619 7.957C70.0299 7.75167 69.8612 7.594 69.6559 7.484C69.4579 7.36667 69.2232 7.308 68.9519 7.308C68.6365 7.308 68.3652 7.36667 68.1379 7.484C67.9105 7.60133 67.7199 7.76267 67.5659 7.968C67.4192 8.17333 67.3092 8.41533 67.2359 8.694C67.1625 8.96533 67.1259 9.25867 67.1259 9.574C67.1259 9.89667 67.1625 10.1973 67.2359 10.476C67.3165 10.7473 67.4302 10.9857 67.5769 11.191C67.7309 11.389 67.9215 11.5467 68.1489 11.664C68.3762 11.774 68.6402 11.829 68.9409 11.829ZM73.3077 14.557C73.139 14.557 72.9704 14.546 72.8017 14.524C72.6404 14.502 72.5194 14.4727 72.4387 14.436V13.556H72.4827C72.5414 13.5927 72.6257 13.6183 72.7357 13.633C72.853 13.655 72.974 13.666 73.0987 13.666C73.304 13.666 73.4764 13.6147 73.6157 13.512C73.755 13.4167 73.876 13.2297 73.9787 12.951C73.9787 12.9437 73.9897 12.9033 74.0117 12.83C74.0337 12.764 74.0594 12.687 74.0887 12.599C74.118 12.511 74.1437 12.4267 74.1657 12.346C74.1877 12.2653 74.195 12.2177 74.1877 12.203L71.9327 6.593H73.0437L74.2647 9.871C74.3234 10.0397 74.382 10.2157 74.4407 10.399C74.4994 10.5823 74.5544 10.7547 74.6057 10.916C74.657 11.1067 74.7084 11.29 74.7597 11.466H74.7817C74.833 11.29 74.888 11.1067 74.9467 10.916C74.998 10.7547 75.053 10.5823 75.1117 10.399C75.1704 10.2157 75.229 10.0397 75.2877 9.871L76.4647 6.593H77.5317L75.0237 13.039C74.899 13.347 74.7744 13.6 74.6497 13.798C74.5324 13.996 74.404 14.15 74.2647 14.26C74.1327 14.3773 73.986 14.4543 73.8247 14.491C73.6707 14.535 73.4984 14.557 73.3077 14.557Z" fill="white"/>
<path d="M91.3575 14.2639V0.0427246L86.574 0.605539V0.648404L87.6345 1.64702C87.7019 1.71925 87.7538 1.80441 87.7873 1.89734C87.8207 1.99027 87.8349 2.08902 87.829 2.18761V14.2639C87.8337 14.3591 87.8189 14.4543 87.7855 14.5436C87.752 14.6329 87.7006 14.7144 87.6345 14.783L86.574 15.7769V15.8198H92.6347V15.7769L91.5742 14.7807C91.5025 14.7156 91.446 14.6356 91.4086 14.5463C91.3711 14.457 91.3537 14.3606 91.3575 14.2639Z" fill="white"/>
<path d="M101.759 5.90798C101.3 5.58138 100.79 5.33275 100.251 5.17212C99.6951 5.01026 99.1191 4.93004 98.5407 4.93398C96.9684 4.93398 95.6697 5.39597 94.6446 6.31997C93.6195 7.24397 93.1083 8.64981 93.111 10.5375C93.111 12.3268 93.6232 13.6831 94.6478 14.6066C95.6723 15.5301 96.9276 15.9921 98.4136 15.9926C101.054 15.9926 102.649 14.6577 103.198 11.9878H103.154C102.491 13.3161 101.394 13.9797 99.8647 13.9787C98.955 13.9787 98.2117 13.6506 97.6349 12.9944C97.0581 12.3381 96.7694 11.3459 96.7689 10.0176V9.98183H103.261C103.275 9.80878 103.282 9.65002 103.282 9.50554C103.282 8.66887 103.145 7.94358 102.871 7.3297C102.597 6.71582 102.226 6.24191 101.759 5.90798ZM99.9513 9.58493H96.7689C96.7832 8.06927 96.9348 6.98439 97.2237 6.33029C97.5127 5.67619 97.9374 5.34782 98.4978 5.34517C98.9741 5.34517 99.3384 5.60977 99.5909 6.13898C99.8433 6.66819 99.9695 7.60251 99.9695 8.94194C99.9727 9.18802 99.9648 9.40076 99.9513 9.58493Z" fill="white"/>
<path d="M114.064 14.4151C113.631 14.4151 113.436 13.9965 113.479 13.1593L113.61 10.0857C113.61 10.0714 113.61 9.95947 113.62 9.7499C113.63 9.54033 113.631 9.39348 113.631 9.30695C113.631 7.73362 113.27 6.60799 112.549 5.93007C111.842 5.26644 110.723 4.93437 109.194 4.93384C107.809 4.93384 106.351 5.20823 104.821 5.75702L106.184 8.85289H106.228L107.982 5.6062C108.026 5.52139 108.089 5.44742 108.166 5.38949C108.216 5.36091 108.349 5.34583 108.563 5.34583C109.616 5.34583 110.143 6.17563 110.143 7.83522V7.94398L110.099 10.2595C109.551 9.8695 108.786 9.67476 107.805 9.67529C106.882 9.66027 105.984 9.96926 105.265 10.5485C104.536 11.1338 104.172 11.9313 104.172 12.941C104.172 13.8936 104.453 14.6403 105.016 15.1812C105.578 15.722 106.278 15.9927 107.115 15.9932C107.766 16.0037 108.403 15.8053 108.933 15.4273C109.463 15.0493 109.858 14.5116 110.06 13.8928C110.088 14.5575 110.326 15.0735 110.774 15.4407C111.222 15.808 111.77 15.9932 112.42 15.9964C113.444 15.9964 114.151 15.5995 114.541 14.8057C114.659 14.5631 114.718 14.296 114.714 14.0262H114.671C114.62 14.1445 114.536 14.2449 114.427 14.3142C114.319 14.3836 114.192 14.4188 114.064 14.4151ZM110.06 13.6332V13.6547C109.727 14.1606 109.316 14.4133 108.825 14.4128C108.45 14.4128 108.143 14.2503 107.905 13.9254C107.668 13.6004 107.549 13.1506 107.549 12.5759C107.549 11.9265 107.704 11.3926 108.014 10.974C108.324 10.5554 108.753 10.3461 109.302 10.3461C109.574 10.3459 109.844 10.3899 110.103 10.4762L110.06 13.6332Z" fill="white"/>
<path d="M119.562 1.4707H119.519L116.488 4.86981C116.344 5.02857 116.121 5.10796 115.817 5.10796H114.843V5.54058H116.034V13.0302C116.034 15.0079 116.972 15.9964 118.847 15.9959C119.8 15.9959 120.532 15.7578 121.045 15.2815C121.549 14.8184 121.888 14.2023 122.008 13.5279L121.965 13.5065C121.676 14.0399 121.257 14.3069 120.709 14.3075C120.546 14.3146 120.384 14.2818 120.237 14.212C120.09 14.1421 119.962 14.0372 119.865 13.9066C119.663 13.642 119.562 13.2631 119.562 12.7698V5.54058H122.224V5.10796H119.562V1.4707Z" fill="white"/>
<path d="M133.541 14.2212C133.541 13.9761 133.551 13.2511 133.573 12.0461C133.595 10.8411 133.605 9.97876 133.605 9.45908C133.605 7.97306 133.317 6.84029 132.74 6.06076C132.163 5.28124 131.326 4.89148 130.228 4.89148C128.526 4.89148 127.379 5.73583 126.787 7.42453V0L122.003 0.562814V0.60568L123.063 1.6043C123.131 1.67648 123.183 1.76162 123.216 1.85455C123.25 1.94747 123.264 2.04625 123.258 2.14488V14.2212C123.263 14.3164 123.248 14.4116 123.214 14.5009C123.181 14.5902 123.129 14.6717 123.063 14.7403L122.003 15.7342V15.777H128.064V15.7342L127.003 14.7379C126.931 14.6724 126.875 14.592 126.837 14.5023C126.8 14.4126 126.783 14.3158 126.787 14.2188V7.66268C127.234 7.01334 127.775 6.68867 128.41 6.68867C129.03 6.68867 129.46 6.9628 129.698 7.51106C129.936 8.05932 130.055 8.87457 130.055 9.9568C130.055 10.3606 130.044 11.1652 130.022 12.3708C130.001 13.5763 129.99 14.2003 129.991 14.2426C129.993 14.3364 129.975 14.4295 129.938 14.5155C129.9 14.6015 129.844 14.6783 129.774 14.7403L128.756 15.7342V15.777H134.817V15.7342L133.757 14.7379C133.685 14.6728 133.629 14.5928 133.591 14.5035C133.554 14.4142 133.537 14.3178 133.541 14.2212Z" fill="white"/>
<path d="M144.206 5.90798C143.748 5.58183 143.24 5.33322 142.701 5.17211C142.146 5.01036 141.57 4.93015 140.991 4.93397C139.418 4.93397 138.119 5.39597 137.095 6.31997C136.071 7.24396 135.559 8.64981 135.559 10.5375C135.559 12.3267 136.071 13.6831 137.095 14.6066C138.12 15.53 139.375 15.992 140.861 15.9926C143.503 15.9926 145.097 14.6576 145.646 11.9878H145.602C144.938 13.3161 143.842 13.9797 142.312 13.9787C141.402 13.9787 140.659 13.6506 140.083 12.9943C139.506 12.3381 139.218 11.3469 139.22 10.0207V9.98182H145.715C145.728 9.80877 145.736 9.65001 145.736 9.50554C145.736 8.66886 145.599 7.94358 145.325 7.3297C145.051 6.71581 144.678 6.24191 144.206 5.90798ZM142.396 9.58492H139.22C139.235 8.06926 139.386 6.98439 139.675 6.33028C139.964 5.67618 140.39 5.34781 140.952 5.34516C141.428 5.34516 141.792 5.60977 142.045 6.13898C142.297 6.66818 142.424 7.6025 142.424 8.94193C142.42 9.18801 142.412 9.40075 142.396 9.58492Z" fill="white"/>
<path d="M154.044 4.93384C153.337 4.93384 152.745 5.21167 152.269 5.76734C151.793 6.32301 151.454 7.02659 151.251 7.87809V5.10768H146.444V5.15055L147.505 6.23251C147.636 6.38166 147.706 6.57527 147.699 6.7739V14.2635C147.699 14.4948 147.634 14.6678 147.505 14.7827L146.444 15.7765V15.8194H153.696V15.7765L151.574 14.5422C151.358 14.3985 151.249 14.2175 151.249 14.0016V8.15593C151.596 7.52087 151.907 7.10254 152.18 6.90091C152.31 6.81412 152.44 6.8501 152.57 7.00886L154.28 9.04341H154.323L155.513 5.64509C155.154 5.17092 154.664 4.93384 154.044 4.93384Z" fill="white"/>
<path d="M163.265 4.9342C161.736 4.9342 160.61 5.72801 159.888 7.31564V0.0427246L155.105 0.605539V0.648404L156.144 1.64702C156.211 1.71935 156.263 1.80453 156.296 1.89743C156.33 1.99034 156.344 2.08904 156.338 2.18761V16H156.382L159.802 14.8243C160.393 15.6038 161.288 15.9936 162.485 15.9936C163.929 15.9936 165.098 15.4702 165.993 14.4234C166.887 13.3767 167.335 12.024 167.335 10.3655C167.335 8.71963 166.967 7.40269 166.231 6.41466C165.495 5.42663 164.506 4.93314 163.265 4.9342ZM161.144 15.0625C160.624 15.0625 160.205 14.9037 159.888 14.5862V7.60062C160.335 6.98092 160.876 6.6708 161.511 6.67027C162.897 6.67027 163.59 7.94037 163.59 10.4806C163.59 13.5352 162.775 15.0625 161.144 15.0625Z" fill="white"/>
<path d="M178.135 14.4151C177.703 14.4151 177.508 13.9965 177.551 13.1593L177.681 10.0857C177.681 10.0714 177.681 9.95947 177.692 9.7499C177.702 9.54033 177.703 9.39348 177.703 9.30695C177.703 7.73362 177.342 6.60799 176.621 5.93007C175.913 5.26644 174.795 4.93437 173.265 4.93384C171.88 4.93384 170.423 5.20823 168.893 5.75702L170.257 8.85289H170.3L172.053 5.6062C172.098 5.52121 172.161 5.44719 172.237 5.38949C172.287 5.36091 172.421 5.34583 172.634 5.34583C173.687 5.34583 174.214 6.17563 174.215 7.83522V7.94398L174.171 10.2595C173.623 9.8695 172.858 9.67476 171.877 9.67529C170.954 9.66014 170.055 9.96914 169.337 10.5485C168.607 11.1338 168.243 11.9313 168.244 12.941C168.244 13.8936 168.525 14.6403 169.088 15.1812C169.65 15.722 170.35 15.9927 171.187 15.9932C171.838 16.0037 172.475 15.8053 173.005 15.4273C173.535 15.0493 173.93 14.5116 174.131 13.8928C174.16 14.5575 174.398 15.0735 174.846 15.4407C175.294 15.808 175.842 15.9932 176.491 15.9964C177.516 15.9964 178.223 15.5995 178.613 14.8057C178.73 14.563 178.79 14.296 178.786 14.0262H178.743C178.692 14.1445 178.607 14.2449 178.499 14.3142C178.391 14.3836 178.264 14.4188 178.135 14.4151ZM174.131 13.6332V13.6547C173.799 14.1606 173.387 14.4133 172.897 14.4128C172.521 14.4128 172.215 14.2503 171.977 13.9254C171.739 13.6004 171.62 13.1506 171.62 12.5759C171.62 11.9265 171.775 11.3926 172.086 10.974C172.396 10.5554 172.826 10.3461 173.373 10.3461C173.646 10.3459 173.916 10.3899 174.174 10.4762L174.131 13.6332Z" fill="white"/>
<path d="M185.214 5.34514H185.322C185.411 5.33723 185.5 5.35226 185.582 5.3888C185.644 5.44761 185.689 5.52263 185.712 5.60551L187.379 9.30707H187.422L188.807 5.58329C187.508 5.15039 186.282 4.93395 185.127 4.93395C184.42 4.92999 183.715 5.03221 183.038 5.23719C182.379 5.44169 181.761 5.76035 181.212 6.17865C180.649 6.60519 180.202 7.19685 179.87 7.95361C179.538 8.71038 179.372 9.58702 179.372 10.5835C179.372 12.3156 179.863 13.6505 180.845 14.5883C181.827 15.5261 183.017 15.9952 184.417 15.9957C185.644 15.9957 186.632 15.66 187.383 14.9884C188.133 14.3168 188.602 13.3825 188.789 12.1854H188.746C188.126 13.3693 187.238 13.9609 186.084 13.9604C185.247 13.9604 184.55 13.6069 183.995 12.8999C183.439 12.1928 183.161 11.0746 183.161 9.54521C183.159 6.74569 183.843 5.34567 185.214 5.34514Z" fill="white"/>
<path d="M200.323 14.2639L197.422 8.54843C197.403 8.51578 197.391 8.47977 197.387 8.44247C197.382 8.40516 197.385 8.36731 197.395 8.33108C197.405 8.29485 197.422 8.26097 197.445 8.23138C197.468 8.20179 197.497 8.17708 197.53 8.15867L201.492 5.15012V5.10725H196.186V5.15012L196.951 6.23923L197.66 7.24975C197.79 7.4228 197.775 7.56728 197.617 7.68238L194.11 10.302V0.0427246L189.327 0.605539V0.648404L190.387 1.64702C190.454 1.71935 190.506 1.80453 190.54 1.89743C190.573 1.99034 190.587 2.08904 190.582 2.18761V14.2639C190.586 14.3591 190.571 14.4542 190.538 14.5435C190.504 14.6327 190.453 14.7142 190.387 14.783L189.327 15.7769V15.8198H195.387V15.7769L194.327 14.7807C194.255 14.7153 194.198 14.6349 194.161 14.5452C194.123 14.4555 194.106 14.3586 194.11 14.2615V10.5377C194.177 10.4819 194.261 10.4512 194.348 10.4512C194.433 10.4467 194.516 10.4695 194.586 10.5163C194.657 10.563 194.71 10.6313 194.738 10.7108L197.141 15.819H201.729V15.7769L200.82 14.9347C200.622 14.7374 200.454 14.5112 200.323 14.2639Z" fill="white"/>
<path d="M207.334 1.85893C207.178 1.294 206.831 0.800633 206.352 0.4629C205.873 0.125166 205.291 -0.0360341 204.707 0.00676708C204.122 0.0495683 203.571 0.293723 203.146 0.697625C202.721 1.10153 202.45 1.64019 202.378 2.22181C202.306 2.80344 202.438 3.39204 202.751 3.88731C203.065 4.38259 203.54 4.75389 204.096 4.93795C204.653 5.12201 205.256 5.10744 205.803 4.89672C206.349 4.686 206.806 4.29217 207.095 3.78234C207.26 3.49339 207.366 3.17463 207.407 2.84448C207.448 2.51433 207.423 2.17936 207.334 1.85893ZM206.36 3.36718C206.167 3.70641 205.863 3.96841 205.499 4.10853C205.135 4.24865 204.733 4.25823 204.363 4.13563C203.993 4.01304 203.677 3.76585 203.468 3.43619C203.26 3.10652 203.172 2.71477 203.22 2.32768C203.268 1.94059 203.449 1.5821 203.731 1.31329C204.014 1.04448 204.381 0.881979 204.77 0.853471C205.159 0.824964 205.546 0.932213 205.865 1.15695C206.183 1.38168 206.414 1.71 206.518 2.08596C206.637 2.51672 206.58 2.97682 206.36 3.36559V3.36718Z" fill="white"/>
<defs>
<clipPath id="clip0_4591_305020">
<rect width="11" height="12" fill="white" transform="translate(0.573975 2)"/>
</clipPath>
</defs>
</svg>